<svg preserveAspectRatio="none" width="100%" height="100%" overflow="visible" style="display: block;" viewBox="0 0 14 14" fill="none" xmlns="http://www.w3.org/2000/svg">
<g id="icon-notification" clip-path="url(#clip0_0_14157)">
<path id="Vector" d="M12.2968 8.32442V10.5937H1.70365V8.32442H3.21434V4.85942C3.22265 3.0438 4.50759 1.53092 6.21734 1.1713L6.24184 1.16692V0.758734C6.24184 0.340047 6.58134 0.000546875 7.00003 0.000546875C7.41872 0.000546875 7.75822 0.340047 7.75822 0.758734V1.16692C9.49815 1.5318 10.7857 3.05342 10.7857 4.87605C10.7857 4.87648 10.7857 4.87648 10.7857 4.87692V8.34192L12.2968 8.32442ZM7.00003 14.0001C8.25347 14.0001 9.26934 12.9842 9.26934 11.7308H4.73115C4.73115 12.9842 5.74659 14.0001 7.00003 14.0001Z" fill="var(--fill-0, white)"/>
</g>
<defs>
<clipPath id="clip0_0_14157">
<rect width="14" height="14" fill="white"/>
</clipPath>
</defs>
</svg>
