<svg preserveAspectRatio="none" width="100%" height="100%" overflow="visible" style="display: block;" viewBox="0 0 14 14" fill="none" xmlns="http://www.w3.org/2000/svg">
<g id="icon-coins" clip-path="url(#clip0_0_14462)">
<path id="Vector" d="M14.0004 11.3207V8.76791H11.0472C11.0315 8.76704 11.0131 8.7666 10.9943 8.7666C10.2886 8.7666 9.7168 9.33841 9.7168 10.0441C9.7168 10.7498 10.2886 11.3216 10.9943 11.3216C11.0131 11.3216 11.0315 11.3212 11.0499 11.3203H11.0472L14.0004 11.3207ZM11.7275 10.0454C11.7262 10.367 11.4655 10.6273 11.1435 10.6273C10.821 10.6273 10.5594 10.3657 10.5594 10.0432C10.5594 9.72079 10.821 9.45916 11.1435 9.45916C11.4659 9.45916 11.7275 9.72079 11.7275 10.0432C11.7275 10.0441 11.7275 10.0445 11.7275 10.0454Z" fill="var(--fill-0, white)"/>
<path id="Vector_2" d="M2.28156 4.44938C2.06763 4.45069 1.89437 4.62438 1.89437 4.83875V4.88031C1.89437 5.09425 2.06763 5.2675 2.28156 5.2675H3.79313C3.62688 5.03169 3.47987 4.76219 3.36525 4.47606L3.35563 4.44938H2.28156Z" fill="var(--fill-0, white)"/>
<path id="Vector_3" d="M10.8675 4.44938C10.7433 4.76219 10.5962 5.03169 10.4217 5.28019L10.43 5.2675H12.6875V4.44938H10.8675Z" fill="var(--fill-0, white)"/>
<path id="Vector_4" d="M12.0859 3.62906V2.99688H11.1563C11.1532 3.22263 11.1318 3.44094 11.0937 3.65313L11.0972 3.62906H12.0859Z" fill="var(--fill-0, white)"/>
<path id="Vector_5" d="M11.0469 7.94684H13.6128V7.25122C13.6128 7.25034 13.6128 7.24991 13.6128 7.24903C13.6128 6.60809 13.0939 6.08878 12.4534 6.08747H2.21813C1.57588 6.04284 1.07188 5.51041 1.07188 4.86072C1.07188 4.85984 1.07188 4.85853 1.07188 4.85766C1.071 4.84103 1.07013 4.82134 1.07013 4.80209C1.07013 4.78284 1.07056 4.76316 1.07188 4.74347V4.74609C1.12219 4.11959 1.64237 3.63003 2.27719 3.62828H3.11938C3.08525 3.43972 3.06469 3.22097 3.0625 2.99828V2.99609H1.54437C0.69125 2.99741 0 3.68909 0 4.54266V12.6583C0.0013125 13.3985 0.600688 13.9979 1.34094 13.9992H12.4512C13.0926 13.9992 13.6128 13.479 13.6128 12.8377V12.1398H11.0469C11.0267 12.1407 11.0031 12.1412 10.9791 12.1412C9.82056 12.1412 8.88125 11.2018 8.88125 10.0433C8.88125 8.88484 9.82056 7.94553 10.9791 7.94553C11.0027 7.94553 11.0267 7.94597 11.0504 7.94684H11.0469Z" fill="var(--fill-0, white)"/>
<path id="Vector_6" d="M9.99906 2.95312C9.99906 2.95225 9.99906 2.95094 9.99906 2.95006C9.99906 1.35406 8.70537 0.060375 7.10937 0.060375C5.51337 0.060375 4.21969 1.35406 4.21969 2.95006C4.21969 3.8955 4.67381 4.73506 5.376 5.26225L5.38344 5.2675H8.83531C9.54494 4.73725 9.99906 3.89944 9.99906 2.95531C9.99906 2.95444 9.99906 2.95356 9.99906 2.95312Z" fill="var(--fill-0, white)"/>
</g>
<defs>
<clipPath id="clip0_0_14462">
<rect width="14" height="14" fill="white"/>
</clipPath>
</defs>
</svg>
