<svg preserveAspectRatio="none" width="100%" height="100%" overflow="visible" style="display: block;" viewBox="0 0 24.4556 25.1927" fill="none" xmlns="http://www.w3.org/2000/svg">
<g id="Vector" filter="url(#filter0_d_0_14621)">
<path d="M20.0331 7.93119L5.25 0.102638C5.13063 0.0384174 4.98687 0 4.83312 0C4.37312 0 4 0.342317 4 0.764335C4 0.765482 4 0.766628 4 0.767775V16.4255C4 16.4266 4 16.4272 4 16.4283C4 16.8503 4.37312 17.1927 4.83312 17.1927C4.98625 17.1927 5.13 17.1548 5.25375 17.0883L5.25 17.09L20.0331 9.26147C20.2875 9.12729 20.4556 8.88016 20.4556 8.59633C20.4556 8.3125 20.2875 8.06537 20.0375 7.93291L20.0331 7.93119Z" fill="var(--fill-0, white)"/>
<path d="M20.0331 7.93119L5.25 0.102638C5.13063 0.0384174 4.98687 0 4.83312 0C4.37312 0 4 0.342317 4 0.764335C4 0.765482 4 0.766628 4 0.767775V16.4255C4 16.4266 4 16.4272 4 16.4283C4 16.8503 4.37312 17.1927 4.83312 17.1927C4.98625 17.1927 5.13 17.1548 5.25375 17.0883L5.25 17.09L20.0331 9.26147C20.2875 9.12729 20.4556 8.88016 20.4556 8.59633C20.4556 8.3125 20.2875 8.06537 20.0375 7.93291L20.0331 7.93119Z" stroke="var(--stroke-0, white)"/>
</g>
<defs>
<filter id="filter0_d_0_14621" x="0" y="0" width="24.4556" height="25.1927" filterUnits="userSpaceOnUse" color-interpolation-filters="sRGB">
<feFlood flood-opacity="0" result="BackgroundImageFix"/>
<feColorMatrix in="SourceAlpha" type="matrix" values="0 0 0 0 0 0 0 0 0 0 0 0 0 0 0 0 0 0 127 0" result="hardAlpha"/>
<feOffset dy="4"/>
<feGaussianBlur stdDeviation="2"/>
<feComposite in2="hardAlpha" operator="out"/>
<feColorMatrix type="matrix" values="0 0 0 0 0 0 0 0 0 0 0 0 0 0 0 0 0 0 0.25 0"/>
<feBlend mode="normal" in2="BackgroundImageFix" result="effect1_dropShadow_0_14621"/>
<feBlend mode="normal" in="SourceGraphic" in2="effect1_dropShadow_0_14621" result="shape"/>
</filter>
</defs>
</svg>
