<svg preserveAspectRatio="none" width="100%" height="100%" overflow="visible" style="display: block;" viewBox="0 0 16 16" fill="none" xmlns="http://www.w3.org/2000/svg">
<path id="Vector" d="M8.34109 5.39725C6.82453 5.39725 3.7914 5.39725 2.27484 5.39725C0.985765 5.39725 0 6.38179 0 7.66926C0 9.18394 0 12.2133 0 13.728C0 15.0155 0.985765 16 2.27484 16C3.7914 16 6.82453 16 8.34109 16C9.63016 16 10.6159 15.0155 10.6159 13.728C10.6159 12.2133 10.6159 9.18394 10.6159 7.66926C10.6159 6.38179 9.63016 5.39725 8.34109 5.39725ZM3.03312 13.8037C2.57815 13.8037 2.19901 13.425 2.19901 12.9706C2.19901 12.5162 2.57815 12.1376 3.03312 12.1376C3.48809 12.1376 3.86723 12.5162 3.86723 12.9706C3.86723 13.425 3.48809 13.8037 3.03312 13.8037ZM3.03312 9.25968C2.57815 9.25968 2.19901 8.88101 2.19901 8.4266C2.19901 7.9722 2.57815 7.59353 3.03312 7.59353C3.48809 7.59353 3.86723 7.9722 3.86723 8.4266C3.86723 8.88101 3.48809 9.25968 3.03312 9.25968ZM5.30796 11.5317C4.853 11.5317 4.47386 11.153 4.47386 10.6986C4.47386 10.2442 4.853 9.86555 5.30796 9.86555C5.76293 9.86555 6.14207 10.2442 6.14207 10.6986C6.14207 11.153 5.76293 11.5317 5.30796 11.5317ZM7.58281 13.8037C7.12784 13.8037 6.7487 13.425 6.7487 12.9706C6.7487 12.5162 7.12784 12.1376 7.58281 12.1376C8.03777 12.1376 8.41692 12.5162 8.41692 12.9706C8.41692 13.425 8.03777 13.8037 7.58281 13.8037ZM7.58281 9.25968C7.12784 9.25968 6.7487 8.88101 6.7487 8.4266C6.7487 7.9722 7.12784 7.59353 7.58281 7.59353C8.03777 7.59353 8.41692 7.9722 8.41692 8.4266C8.41692 8.88101 8.03777 9.25968 7.58281 9.25968ZM8.94771 0.171604C7.81029 -0.2828 6.52121 0.171604 5.99042 1.45908C5.61128 2.44362 4.92882 4.26124 4.92882 4.26124C4.92882 4.26124 7.50698 4.26124 8.34109 4.26124C10.2368 4.26124 11.7533 5.62445 11.7533 7.66926C11.7533 8.88101 11.7533 12.289 11.7533 12.289C12.6633 12.2133 13.4216 11.6832 13.7249 10.8501C14.2557 9.48688 15.3173 6.60899 15.8481 5.24578C16.303 4.10977 15.6964 2.74656 14.559 2.29216C13.1941 1.76202 10.3126 0.701741 8.94771 0.171604ZM8.79606 3.65537C8.34109 3.65537 7.96195 3.27669 7.96195 2.82229C7.96195 2.36789 8.34109 1.98922 8.79606 1.98922C9.25102 1.98922 9.63016 2.36789 9.63016 2.82229C9.63016 3.27669 9.25102 3.65537 8.79606 3.65537ZM12.5875 5.54871C12.1325 5.54871 11.7533 5.17004 11.7533 4.71564C11.7533 4.26124 12.1325 3.88257 12.5875 3.88257C13.0424 3.88257 13.4216 4.26124 13.4216 4.71564C13.4216 5.17004 13.0424 5.54871 12.5875 5.54871Z" fill="var(--fill-0, #8FA1E3)"/>
</svg>
