<svg preserveAspectRatio="none" width="100%" height="100%" overflow="visible" style="display: block;" viewBox="0 0 16 16" fill="none" xmlns="http://www.w3.org/2000/svg">
<g id="icon-promotions">
<path id="Vector" d="M14.03 3.62512H11.925C12.129 3.30462 12.25 2.91462 12.25 2.49562C12.25 1.32212 11.2985 0.370625 10.125 0.370625C8.9515 0.370625 8 1.32212 8 2.49562C8 1.32212 7.0485 0.370625 5.875 0.370625C4.7015 0.370625 3.75 1.32212 3.75 2.49562C3.75 2.91412 3.871 3.30462 4.08 3.63362L4.075 3.62512H1.97C1.5725 3.62512 1.25 3.94762 1.25 4.34512V5.90512C1.25 6.30262 1.5725 6.62512 1.97 6.62512H14.03C14.4275 6.62512 14.75 6.30262 14.75 5.90512V4.34512C14.75 3.94762 14.4275 3.62512 14.03 3.62512ZM9.25 2.50012C9.25 2.01712 9.642 1.62512 10.125 1.62512C10.608 1.62512 11 2.01712 11 2.50012C11 2.98312 10.608 3.37512 10.125 3.37512H9.25V2.50012ZM5.875 1.62512C6.358 1.62512 6.75 2.01712 6.75 2.50012V3.37512H5.875C5.392 3.37512 5 2.98312 5 2.50012C5 2.01712 5.392 1.62512 5.875 1.62512Z" fill="var(--fill-0, white)"/>
<path id="Vector_2" d="M2.25 14.75C2.25 15.2375 2.645 15.6325 3.1325 15.6325H6.75V8.1325H2.25V14.75Z" fill="var(--fill-0, white)"/>
<path id="Vector_3" d="M9.25 15.625H12.8675C13.3525 15.625 13.7455 15.234 13.75 14.7505V8.125H9.25V15.625Z" fill="var(--fill-0, white)"/>
</g>
</svg>
