<svg preserveAspectRatio="none" width="100%" height="100%" overflow="visible" style="display: block;" viewBox="0 0 13.2089 16.0014" fill="none" xmlns="http://www.w3.org/2000/svg">
<g id="Group 191">
<path id="Vector" d="M13.0256 11.3342C12.8432 11.0174 12.5472 10.7918 12.192 10.6974C11.8464 10.6046 11.4896 10.6494 11.1904 10.8206L8.17925 12.2862C7.77765 12.4878 7.32805 12.4878 6.34085 12.4878C5.41285 12.4878 3.97605 12.259 3.81605 12.2334C3.66405 12.2078 3.51045 12.243 3.38565 12.3326C3.25925 12.4222 3.17765 12.555 3.15205 12.707C3.12645 12.859 3.16165 13.0126 3.25125 13.139C3.34085 13.2654 3.47365 13.3486 3.62725 13.3726C3.69285 13.3838 5.26085 13.643 6.34245 13.643C7.42405 13.643 8.05125 13.643 8.69125 13.323L11.7232 11.8462L11.7408 11.8366C11.7888 11.8094 11.8448 11.8014 11.8976 11.8158C11.952 11.8302 11.9968 11.8654 12.024 11.9134C12.0512 11.9614 12.0592 12.0174 12.0448 12.0718C12.0304 12.1278 11.9936 12.171 11.9312 12.2078L8.38725 14.4142C8.38725 14.4142 7.66085 14.8462 6.08005 14.8462C4.73925 14.8462 2.64165 13.7246 2.40325 13.595C2.29285 13.5422 1.68165 13.275 0.577649 13.275C0.259249 13.275 4.86374e-05 13.5342 4.86374e-05 13.8526C4.86374e-05 14.171 0.259249 14.4302 0.577649 14.4302C1.36965 14.4302 1.80805 14.5966 1.88005 14.6254C2.13605 14.7662 4.43205 16.0014 6.08005 16.0014C8.07685 16.0014 8.97125 15.4142 9.00645 15.3902L12.5264 13.1982C12.8416 13.0158 13.0672 12.7214 13.1616 12.371C13.256 12.019 13.208 11.651 13.0256 11.3358V11.3342Z" fill="var(--fill-0, white)"/>
<path id="Vector_2" d="M0.577649 10.2881H2.67365C2.87365 10.2881 3.45605 10.7249 3.76805 10.9585C4.38565 11.4224 4.96965 11.8593 5.55525 11.8593H7.12645C7.37925 11.8593 7.50565 11.9553 7.51365 11.9617C7.62085 12.0657 7.76325 12.1217 7.91205 12.1217C8.06085 12.1217 8.21125 12.0608 8.32005 11.952C8.42885 11.8432 8.48965 11.6977 8.48965 11.5441C8.48965 11.3905 8.42885 11.2448 8.32005 11.1344C8.24805 11.0624 7.85125 10.7041 7.12645 10.7041H5.55525C5.35525 10.7041 4.77285 10.2673 4.46085 10.0337C3.84325 9.56965 3.25925 9.13125 2.67365 9.13125H0.577649C0.259249 9.13125 4.86374e-05 9.39045 4.86374e-05 9.70885C4.86374e-05 10.0273 0.259249 10.2865 0.577649 10.2865V10.2881Z" fill="var(--fill-0, white)"/>
<path id="Subtract" d="M7.69641 0.00195312C10.4686 0.0022055 12.7302 2.25459 12.7374 5.02441C12.7445 7.80622 10.5279 10.0253 7.69152 10.0801H7.60559C6.3323 10.0801 5.05696 9.53806 4.09484 8.58789C3.12557 7.63049 2.59511 6.37361 2.60461 5.05273C2.6047 3.70822 3.13723 2.44169 4.10168 1.48438C5.06617 0.527154 6.3424 0 7.69641 0V0.00195312ZM8.88 7.44434C8.93214 7.47371 8.99197 7.49121 9.05578 7.49121C9.26058 7.49117 9.4259 7.31768 9.4259 7.10449C9.42588 7.08082 9.4239 7.05727 9.42004 7.03711L9.23254 5.87402L9.23352 5.87695C9.22962 5.8536 9.22668 5.82905 9.22668 5.80469C9.22672 5.69763 9.26976 5.60026 9.33801 5.53125L10.1525 4.70703L10.1954 4.65039C10.2335 4.58942 10.255 4.51648 10.255 4.43848C10.2549 4.24977 10.1263 4.09219 9.95227 4.05664L8.8302 3.88672H8.82824C8.70644 3.86737 8.60355 3.78692 8.54992 3.67383L8.04797 2.61523L8.04699 2.61328C7.98561 2.48701 7.85913 2.40058 7.71399 2.40039C7.56865 2.40039 7.44145 2.48629 7.37902 2.61523L6.87707 3.67383L6.87609 3.67578C6.82244 3.78084 6.7231 3.85767 6.60363 3.87695L5.48254 4.04688H5.48059C5.30222 4.07579 5.16537 4.23694 5.16516 4.43066C5.16516 4.53829 5.20723 4.63647 5.27551 4.70703L6.09192 5.53125C6.16017 5.60026 6.20321 5.69763 6.20324 5.80469C6.20324 5.82945 6.20028 5.85328 6.19641 5.87402L6.00695 7.03711L6.00207 7.09961C6.00221 7.31266 6.16749 7.48528 6.37219 7.48535C6.43159 7.48535 6.48753 7.47012 6.53527 7.44531L7.5382 6.89746C7.59034 6.86758 7.65066 6.85156 7.71399 6.85156C7.77721 6.85164 7.83673 6.8686 7.88684 6.89746L8.88 7.44434Z" fill="var(--fill-0, white)"/>
</g>
</svg>
