<svg preserveAspectRatio="none" width="100%" height="100%" overflow="visible" style="display: block;" viewBox="0 0 16 16" fill="none" xmlns="http://www.w3.org/2000/svg">
<g id="icon-provider-slots" clip-path="url(#clip0_0_6451)">
<path id="Vector" d="M9.4665 7.84656C8.882 8.94956 8.537 10.2576 8.533 11.6456V12.4801H5.3865C5.3935 11.1036 5.7 9.80006 6.2435 8.62956L6.2195 8.68656C6.834 7.34006 7.586 6.18056 8.4815 5.14856L8.4665 5.16656H3.8V2.72656H12V4.02006C11.075 5.13806 10.2345 6.39206 9.525 7.72606L9.4665 7.84656Z" fill="var(--fill-0, #8FA1E3)"/>
<path id="Vector_2" d="M13.8665 10.5534C13.3845 11.1599 13.034 11.8929 12.872 12.6939L12.8665 12.7264L12.7665 13.2264L10 12.7199C10.301 11.2124 11.1 9.92788 12.2155 9.01538L12.227 9.00638L10.227 8.61287L11.067 6.83938L16.0005 7.81288L15.847 8.58638C15.117 9.18438 14.4685 9.82887 13.886 10.5299L13.8665 10.5534Z" fill="var(--fill-0, #8FA1E3)"/>
<path id="Vector_3" d="M4.1135 9.71338C4.0215 10.0729 3.9685 10.4854 3.9685 10.9099C3.9685 11.3344 4.0215 11.7474 4.121 12.1414L4.1135 12.1069L4.2335 12.6069L1.52 13.2734C1.4045 12.8214 1.338 12.3024 1.338 11.7679C1.338 10.7424 1.5825 9.77337 2.0165 8.91737L2 8.95337L0 9.42688V7.48038L4.8935 6.30688L5.08 7.07338C4.6995 7.82588 4.369 8.70438 4.1335 9.62138L4.1135 9.71338Z" fill="var(--fill-0, #8FA1E3)"/>
</g>
<defs>
<clipPath id="clip0_0_6451">
<rect width="16" height="16" fill="white"/>
</clipPath>
</defs>
</svg>
