<svg preserveAspectRatio="none" width="100%" height="100%" overflow="visible" style="display: block;" viewBox="0 0 16 16" fill="none" xmlns="http://www.w3.org/2000/svg">
<path id="Vector" d="M15.8288 4.74032C15.3495 5.78479 13.9914 8.99856 13.9914 8.99856V1.36585C13.9914 1.36585 14.3909 1.52654 14.5506 1.60689C15.7489 2.08895 16.3081 3.53515 15.8288 4.74032ZM12.7932 7.95409C12.7932 7.95409 12.7932 3.77618 12.7932 2.41033C12.7932 1.04448 11.7546 0 10.3966 0C10.1569 0 9.43795 0 9.43795 0L12.7932 7.95409ZM12.7932 10.8465C11.8345 8.59684 9.99715 4.1779 9.03852 2.00861C8.47932 0.723099 7.12126 0.241033 5.92297 0.723099C4.80457 1.12482 2.56776 2.08895 1.44936 2.57102C0.251071 3.05308 -0.30813 4.49928 0.171185 5.70445C1.12982 7.95409 2.96719 12.373 3.92582 14.5423C4.48502 15.7475 5.84308 16.3099 7.04137 15.8278C8.15977 15.3458 10.3167 14.3816 11.4351 13.9799C12.7133 13.4978 13.2725 12.0516 12.7932 10.8465ZM7.52068 10.8465L4.64479 9.07891L5.36377 5.6241L8.31954 7.47202L7.52068 10.8465Z" fill="var(--fill-0, #8FA1E3)"/>
</svg>
