<svg preserveAspectRatio="none" width="100%" height="100%" overflow="visible" style="display: block;" viewBox="0 0 42.7836 35.8493" fill="none" xmlns="http://www.w3.org/2000/svg">
<g id="Group">
<path id="Vector" d="M26.7635 33.404C26.7635 33.404 27.1506 32.696 27.1932 29.512C27.228 26.852 25.6949 22.652 22.2687 19.468C19.5896 16.976 16.3144 14.512 11.1343 11.636C6.17499 8.884 0 6.372 0 6.372L13.2327 0C13.2327 0 23.9799 6.532 29.1134 11.284C34.5877 16.36 37.4371 21.288 39.1096 24.336C40.8401 27.488 42.7836 32.036 42.7836 31.904C42.7836 31.772 37.1738 36.02 37.1313 35.844C37.0887 35.668 26.7673 33.412 26.7673 33.412L26.7635 33.404Z" fill="var(--fill-0, #691E5B)"/>
</g>
</svg>
