<svg preserveAspectRatio="none" width="100%" height="100%" overflow="visible" style="display: block;" viewBox="0 0 37.981 37.9813" fill="none" xmlns="http://www.w3.org/2000/svg">
<g id="Group">
<path id="Vector" d="M18.1765 37.9812C8.15391 37.9812 0 29.751 0 19.6348C0 9.5184 8.15391 1.28822 18.1765 1.28822C19.9106 1.28822 21.6262 1.53458 23.2756 2.02028C23.8357 2.18517 24.1573 2.77707 23.9938 3.34228C23.8303 3.90776 23.2439 4.23273 22.6841 4.06719C21.2268 3.6381 19.7102 3.4205 18.1765 3.4205C9.31874 3.4205 2.11252 10.6941 2.11252 19.6348C2.11252 28.5753 9.31874 35.8489 18.1765 35.8489C27.0342 35.8489 34.2405 28.5753 34.2405 19.6348C34.2405 18.2798 34.0747 16.9336 33.7477 15.6334C33.6041 15.0625 33.9463 14.4825 34.5115 14.3376C35.076 14.1919 35.6516 14.5378 35.7952 15.1086C36.1653 16.5803 36.353 18.1031 36.353 19.6348C36.353 29.751 28.199 37.9812 18.1765 37.9812Z" fill="var(--fill-0, #EA3323)"/>
<path id="Vector_2" d="M31.9958 12.083C31.4125 12.083 30.9395 11.6056 30.9395 11.0168V1.06614C30.9395 0.47737 31.4125 0 31.9958 0C32.5791 0 33.052 0.47737 33.052 1.06614V11.0168C33.052 11.6056 32.5791 12.083 31.9958 12.083Z" fill="var(--fill-0, #EA3323)"/>
<path id="Vector_3" d="M36.9247 7.10758H27.0664C26.4831 7.10758 26.0101 6.63021 26.0101 6.04144C26.0101 5.45267 26.4831 4.9753 27.0664 4.9753H36.9247C37.508 4.9753 37.981 5.45267 37.981 6.04144C37.981 6.63021 37.508 7.10758 36.9247 7.10758Z" fill="var(--fill-0, #EA3323)"/>
<g id="Group_2">
<path id="Vector_4" d="M10.9536 26.1368V16.605C9.19627 17.9668 8.01327 18.6475 7.40455 18.6475C7.11393 18.6475 6.85618 18.5306 6.63144 18.2966C6.40657 18.0629 6.29414 17.7922 6.29414 17.4851C6.29414 17.1287 6.40477 16.8669 6.62628 16.6992C6.84754 16.5319 7.23848 16.3153 7.79885 16.0498C8.63591 15.6518 9.30523 15.233 9.80692 14.7932C10.3084 14.353 10.7528 13.8608 11.1404 13.316C11.5277 12.7715 11.7802 12.4362 11.8979 12.3105C12.0155 12.1848 12.2368 12.1221 12.5621 12.1221C12.9286 12.1221 13.2226 12.2652 13.4441 12.5516C13.6654 12.8379 13.7761 13.2325 13.7761 13.7351V25.7284C13.7761 27.1319 13.3023 27.8336 12.3545 27.8336C11.9325 27.8336 11.5934 27.6904 11.3375 27.4041C11.0815 27.1178 10.9536 26.6956 10.9536 26.1368Z" fill="var(--fill-0, white)"/>
<path id="Vector_5" d="M17.3052 16.113C17.3052 15.4149 17.4936 14.7567 17.8708 14.1385C18.2478 13.5206 18.8012 13.0268 19.5312 12.6564C20.261 12.2865 21.1138 12.1012 22.0894 12.1012C22.9125 12.1012 23.6356 12.2098 24.2581 12.4261C24.8809 12.6426 25.3997 12.9412 25.8146 13.3217C26.2298 13.7022 26.5375 14.1317 26.7383 14.6099C26.939 15.0883 27.0393 15.5964 27.0393 16.1339C27.0393 16.8184 26.8644 17.4293 26.5153 17.9671C26.1659 18.5048 25.6452 18.9447 24.9533 19.2867C25.5413 19.5171 26.0289 19.8193 26.4165 20.1928C26.8038 20.5663 27.0963 20.9994 27.2935 21.4916C27.4906 21.9838 27.5893 22.5304 27.5893 23.1309C27.5893 24.0107 27.3781 24.8085 26.9562 25.5243C26.5341 26.2401 25.9149 26.8005 25.0988 27.2055C24.2823 27.6102 23.3205 27.813 22.2136 27.813C21.0653 27.813 20.0828 27.6102 19.2665 27.2055C18.4502 26.8005 17.8345 26.2434 17.4193 25.5347C17.0043 24.8259 16.7967 24.0315 16.7967 23.1517C16.7967 21.2735 17.6753 19.9851 19.4327 19.2867C18.0143 18.6165 17.3052 17.5584 17.3052 16.113ZM24.7457 23.0471C24.7457 22.5023 24.6351 22.0276 24.4138 21.6226C24.1923 21.2175 23.8811 20.9068 23.4798 20.6902C23.0786 20.4739 22.6288 20.3656 22.1309 20.3656C21.4251 20.3656 20.8335 20.603 20.3562 21.0778C19.8788 21.5528 19.6403 22.216 19.6403 23.0679C19.6403 23.6127 19.7525 24.0929 19.9773 24.5081C20.2022 24.9238 20.5083 25.245 20.8959 25.472C21.2832 25.6989 21.7157 25.8122 22.193 25.8122C22.6773 25.8122 23.1131 25.6971 23.5004 25.4665C23.888 25.2361 24.1923 24.9116 24.4138 24.4925C24.6351 24.0734 24.7457 23.5916 24.7457 23.0471ZM22.1515 14.1021C21.5011 14.1021 20.9771 14.3061 20.5792 14.7148C20.1813 15.1232 19.9828 15.6487 19.9828 16.2911C19.9828 16.8848 20.1867 17.3788 20.595 17.7732C21.0029 18.1678 21.529 18.365 22.1724 18.365C22.4973 18.365 22.7931 18.3127 23.0595 18.2078C23.3259 18.1032 23.5541 17.9582 23.7444 17.7732C23.9347 17.5884 24.0817 17.3684 24.1854 17.1133C24.2893 16.8585 24.3411 16.5774 24.3411 16.2702C24.3411 15.8582 24.2493 15.4881 24.0662 15.1599C23.8826 14.8316 23.625 14.5732 23.2931 14.3847C22.961 14.1963 22.5803 14.1021 22.1515 14.1021Z" fill="var(--fill-0, white)"/>
</g>
</g>
</svg>
