<svg preserveAspectRatio="none" width="100%" height="100%" overflow="visible" style="display: block;" viewBox="0 0 49.999 23.1201" fill="none" xmlns="http://www.w3.org/2000/svg">
<g id="Group">
<path id="Vector" d="M1.50277 20.6346C1.01741 20.5846 0.571988 20.6983 0.484003 21.2555C0.360618 22.037 1.20437 22.2747 2.26321 22.4413C3.32207 22.6078 4.19816 22.6406 4.32154 21.8591C4.4449 21.0777 3.51709 20.8727 2.90744 20.7768L2.76485 21.6799L2.30282 21.6073L2.5263 20.1917L4.90712 20.5662L4.84037 20.9889L4.2179 20.891L4.21587 20.9038C4.58812 21.0871 4.85134 21.5027 4.77245 22.0023C4.58437 23.1936 3.4023 23.2243 2.17018 23.0305C1.01507 22.8488 -0.177262 22.4447 0.0219429 21.1829C0.229258 19.8698 1.35733 20.0144 1.5958 20.0454L1.50277 20.6346Z" fill="var(--fill-0, #9D3144)"/>
<path id="Vector_2" d="M1.02117 17.4135L1.26778 16.6889L6.06129 16.9995L5.869 17.5644L4.5567 17.4686L4.08019 18.8686L5.17511 19.6028L4.98284 20.1677L1.02117 17.4135ZM3.6749 18.6079L4.07618 17.429L1.7637 17.268L1.75951 17.2803L3.6749 18.6079Z" fill="var(--fill-0, #9D3144)"/>
<path id="Vector_3" d="M2.21707 14.2566L2.69785 13.4255L6.34689 14.4577L6.35339 14.4465L3.63344 11.8082L4.11424 10.9771L8.13143 13.2922L7.84556 13.7863L4.33473 11.7631L4.32823 11.7743L7.32579 14.6849L7.0399 15.179L3.01581 14.043L3.00931 14.0543L6.52012 16.0776L6.23425 16.5717L2.21707 14.2566Z" fill="var(--fill-0, #9D3144)"/>
<path id="Vector_4" d="M5.13306 9.70206L5.48997 9.25631L9.11346 12.1469L8.75652 12.5926L5.13306 9.70206Z" fill="var(--fill-0, #9D3144)"/>
<path id="Vector_5" d="M6.46738 8.07399L6.99984 7.56014L10.7937 9.27494L10.803 9.26592L8.11151 6.48739L8.52254 6.09074L11.7469 9.4194L11.1817 9.96479L7.50193 8.30235L7.49259 8.31136L10.1028 11.006L9.69176 11.4026L6.46738 8.07399Z" fill="var(--fill-0, #9D3144)"/>
<path id="Vector_6" d="M12.4074 4.86058C12.1145 4.47112 11.7282 4.22218 11.2588 4.53638C10.6005 4.97696 10.999 5.75641 11.596 6.64501C12.193 7.53362 12.7642 8.19751 13.4225 7.75691C14.0807 7.31632 13.601 6.49752 13.2573 5.98589L12.4965 6.49512L12.236 6.10735L13.4285 5.30924L14.7708 7.30727L14.4147 7.54562L14.0637 7.02322L14.0529 7.03045C14.1711 7.42758 14.0445 7.90271 13.6236 8.18439C12.62 8.85612 11.7943 8.01128 11.0996 6.97726C10.4483 6.00788 9.9353 4.86006 10.9983 4.14861C12.1044 3.40828 12.7645 4.33269 12.9038 4.52833L12.4074 4.86058Z" fill="var(--fill-0, #9D3144)"/>
<path id="Vector_7" d="M15.5898 1.80316L16.1285 1.61216L17.5116 5.49837L19.287 4.86891L19.4566 5.34553L17.1425 6.16599L15.5898 1.80316Z" fill="var(--fill-0, #9D3144)"/>
<path id="Vector_8" d="M20.0738 0.4864L20.8275 0.34645L22.9021 4.67048L22.3145 4.77958L21.7559 3.59057L20.2997 3.86097L20.194 5.17331L19.6064 5.28241L20.0738 0.4864ZM20.3291 3.38061L21.5554 3.15292L20.5642 1.06148L20.5515 1.06385L20.3291 3.38061Z" fill="var(--fill-0, #9D3144)"/>
<path id="Vector_9" d="M23.3007 0.0246635L24.7233 0.000279594C25.3274 -0.0100758 25.9169 0.265184 25.9324 1.1664C25.9397 1.58783 25.6936 2.01359 25.2735 2.14402L25.2737 2.15697C25.8477 2.28333 26.1085 2.71339 26.1183 3.28393C26.1345 4.22405 25.6084 4.61571 24.6405 4.63228L23.3804 4.65387L23.3007 0.0246635ZM23.9067 2.01179L24.5628 2.00053C24.8031 1.99642 25.3478 1.92872 25.3355 1.21554C25.3272 0.73576 25.0821 0.461094 24.5235 0.470656L23.8804 0.48167L23.9067 2.01179ZM23.9439 4.17728L24.7234 4.16391C25.3276 4.15357 25.5284 3.74153 25.5207 3.29418C25.5098 2.65879 25.0963 2.41944 24.5961 2.42801L23.9141 2.43968L23.9439 4.17728Z" fill="var(--fill-0, #9D3144)"/>
<path id="Vector_10" d="M30.1394 2.83001C29.9564 3.98283 29.5505 5.17258 28.2864 4.97266C27.0223 4.77275 27.0048 3.516 27.1878 2.36318C27.3708 1.21036 27.7768 0.0206079 29.0408 0.220535C30.3049 0.420442 30.3225 1.67719 30.1394 2.83001ZM27.7781 2.45653C27.6104 3.51329 27.5768 4.38772 28.3596 4.51153C29.1424 4.63535 29.3813 3.79338 29.5491 2.73665C29.7169 1.6799 29.7505 0.805459 28.9676 0.681648C28.1848 0.557842 27.9459 1.3998 27.7781 2.45653Z" fill="var(--fill-0, #9D3144)"/>
<path id="Vector_11" d="M32.0972 0.959372L33.5149 1.45061C34.2022 1.68878 34.4974 2.24407 34.2566 2.93626C34.0904 3.41404 33.75 3.85891 33.198 3.80491L33.1938 3.81718C33.5593 3.99189 33.6655 4.37873 33.5601 4.76089L33.3369 5.52097C33.1932 6.01337 33.2303 6.16355 33.3315 6.28782L32.681 6.06241C32.6209 5.93864 32.6909 5.59909 32.7532 5.38045L32.9528 4.68775C33.1187 4.07255 32.8001 3.92097 32.5239 3.82528L31.7936 3.57221L31.116 5.52013L30.576 5.333L32.0972 0.959372ZM31.947 3.13117L32.4809 3.3162C32.8 3.42677 33.383 3.62881 33.6771 2.78349C33.8262 2.35469 33.6315 1.98522 33.1283 1.81084L32.4839 1.58755L31.947 3.13117Z" fill="var(--fill-0, #9D3144)"/>
<path id="Vector_12" d="M36.9011 2.93971L37.573 3.30819L36.4322 7.96548L35.9084 7.67818L36.2312 6.40504L34.9331 5.693L34.018 6.64138L33.4942 6.35407L36.9011 2.93971ZM35.2608 5.34004L36.354 5.93964L36.9153 3.69482L36.9039 3.68858L35.2608 5.34004Z" fill="var(--fill-0, #9D3144)"/>
<path id="Vector_13" d="M37.659 8.92158L37.2022 8.57857L39.686 5.28316L38.7567 4.58543L39.0613 4.18128L41.3818 5.92364L41.0772 6.32781L40.1428 5.62617L37.659 8.92158Z" fill="var(--fill-0, #9D3144)"/>
<path id="Vector_14" d="M42.7174 10.5323C41.8692 11.3357 40.8216 12.033 39.9407 11.1065C39.0597 10.1799 39.8122 9.17218 40.6604 8.36877C41.5085 7.56535 42.5561 6.86804 43.4371 7.79459C44.318 8.72111 43.5656 9.72884 42.7174 10.5323ZM41.0718 8.80148C40.2943 9.53795 39.7344 10.2113 40.28 10.7851C40.8255 11.3589 41.5285 10.836 42.306 10.0996C43.0835 9.36311 43.6434 8.68975 43.0978 8.11596C42.5522 7.54216 41.8493 8.06501 41.0718 8.80148Z" fill="var(--fill-0, #9D3144)"/>
<path id="Vector_15" d="M45.4108 10.2314L46.2383 11.481C46.6395 12.0869 46.5362 12.707 45.9237 13.111C45.501 13.3899 44.9598 13.5371 44.5541 13.1596L44.5433 13.1668C44.7274 13.5272 44.5764 13.8989 44.2601 14.1386L43.6204 14.6073C43.2066 14.9114 43.1448 15.0533 43.1495 15.2134L42.7698 14.64C42.7974 14.5052 43.0595 14.2778 43.2421 14.1418L43.8222 13.7125C44.3282 13.3242 44.1673 13.0106 44.0061 12.7672L43.5798 12.1234L41.8563 13.2605L41.541 12.7845L45.4108 10.2314ZM43.97 11.866L44.2817 12.3366C44.4679 12.6179 44.8083 13.1318 45.5562 12.6384C45.9356 12.3881 46.0057 11.9765 45.7119 11.5329L45.3358 10.9649L43.97 11.866Z" fill="var(--fill-0, #9D3144)"/>
<path id="Vector_16" d="M47.5566 13.756L47.8108 14.2671L43.656 16.3256L43.4018 15.8145L47.5566 13.756Z" fill="var(--fill-0, #9D3144)"/>
<path id="Vector_17" d="M48.4382 15.616L49.2495 17.8674L48.7727 18.0386L48.1549 16.3241L46.7856 16.8157L47.3682 18.4326L46.8914 18.6037L46.3087 16.9869L44.7438 17.5487L45.388 19.3364L44.9112 19.5076L44.0735 17.1829L48.4382 15.616Z" fill="var(--fill-0, #9D3144)"/>
<path id="Vector_18" d="M48.824 21.4725C49.303 21.383 49.6027 21.1489 49.5023 20.6135C49.4138 20.1418 49.1058 19.9091 48.6205 19.9998C47.337 20.2397 48.5062 22.2444 46.8395 22.5559C45.7859 22.7528 45.3411 22.0377 45.2203 21.394C45.0206 20.3296 45.5112 19.9147 46.4818 19.7332L46.587 20.2941C46.0762 20.3896 45.533 20.5241 45.6873 21.3463C45.771 21.7924 46.1548 22.0769 46.6401 21.9862C47.93 21.7452 46.78 19.7369 48.453 19.4242C48.8744 19.3454 49.7444 19.3676 49.9609 20.5212C50.1235 21.388 49.7634 21.8643 48.9293 22.0334L48.824 21.4725Z" fill="var(--fill-0, #9D3144)"/>
</g>
</svg>
