<svg preserveAspectRatio="none" width="100%" height="100%" overflow="visible" style="display: block;" viewBox="0 0 27.7957 13.8722" fill="none" xmlns="http://www.w3.org/2000/svg">
<g id="Group">
<path id="Vector" d="M6.4782 7.01616H13.0055L13.021 8.15216C13.021 10.1322 12.7926 11.5122 12.3357 12.2962C11.8789 13.0802 10.8684 13.4722 9.30437 13.4722H5.09222C3.18746 13.4722 1.92923 13.1122 1.31754 12.3882C0.705846 11.6682 0.4 10.1042 0.4 7.70416V6.99616C0.4 4.50416 0.632287 2.79216 1.09299 1.86016C1.5537 0.928158 2.67255 0.460158 4.44568 0.460158L6.97375 0.420158L8.19326 0.400157L10.1948 0.496158C11.1588 0.496158 11.8402 0.804158 12.2467 1.41616C12.6532 2.02816 12.8545 2.98016 12.8545 4.27216H11.6505C11.6505 3.14816 11.4647 2.45616 11.093 2.19216C10.7213 1.93216 10.0283 1.80016 9.01789 1.80016L6.97375 1.78016L5.78521 1.76016L3.81463 1.85616C3.05196 1.94416 2.51382 2.13216 2.19636 2.41216C1.8789 2.69216 1.72404 3.39616 1.72404 4.52016L1.6621 7.81616C1.6621 9.19616 1.73953 10.2482 1.89439 10.9682C2.04924 11.6882 2.85838 12.0522 4.3218 12.0522L6.87696 12.0922L7.96097 12.1122H8.18552C8.64622 12.1122 9.25405 12.0682 10.0051 11.9762C10.7562 11.8882 11.2324 11.5802 11.4337 11.0562C11.635 10.5322 11.7357 9.61216 11.7357 8.29616H6.47046V7.01216L6.4782 7.01616Z" fill="var(--fill-0, white)" stroke="var(--stroke-0, white)" stroke-width="0.8" stroke-miterlimit="10"/>
<path id="Vector_2" d="M24.0624 13.3562L21.4763 13.4722H20.3613L18.1352 13.3562C16.3504 13.1242 15.4561 11.9042 15.4561 9.69216L15.3981 7.25616C15.3981 6.28416 15.4058 5.56016 15.4213 5.08816C15.4368 4.61616 15.5103 3.95616 15.6381 3.11216C15.7697 2.26816 16.0833 1.62816 16.5866 1.19216C17.086 0.75616 17.7829 0.54016 18.6772 0.54016C19.0798 0.48016 19.4554 0.44416 19.8115 0.42816C20.1677 0.41216 20.5858 0.40416 21.0659 0.40416H22.87C23.4507 0.40416 23.923 0.420159 24.2831 0.452159C24.6431 0.484159 25.1193 0.58016 25.7039 0.73216C26.2924 0.88816 26.6989 1.30016 26.9312 1.97616C27.1635 2.65216 27.2757 3.54816 27.2757 4.67616H26.0717V4.56016C26.0717 3.96816 26.0446 3.48416 25.9904 3.10416C25.9362 2.72416 25.8046 2.44816 25.5994 2.27616C25.3942 2.10416 25.0148 1.97616 24.465 1.88416C23.9153 1.79216 23.1526 1.74816 22.1809 1.74816C21.8208 1.74816 21.275 1.77216 20.5394 1.81616C19.8077 1.86016 19.254 1.88416 18.8863 1.88416C18.0229 1.97216 17.4732 2.17216 17.2331 2.47216C16.9931 2.77216 16.8421 3.29616 16.7802 4.04416C16.7182 4.78816 16.6834 5.46816 16.6756 6.07616C16.664 6.68816 16.6602 7.26816 16.6602 7.82016C16.6602 9.45216 16.7879 10.5762 17.0434 11.1922C17.299 11.8082 17.9765 12.1162 19.0798 12.1162H23.6675C24.5889 12.1162 25.2316 11.9762 25.5916 11.7002C25.9517 11.4242 26.1336 10.7562 26.1336 9.69616V9.18416H27.3957C27.3957 10.8042 27.1944 11.9082 26.7957 12.4882C26.393 13.0682 25.4832 13.3602 24.0585 13.3602L24.0624 13.3562Z" fill="var(--fill-0, white)" stroke="var(--stroke-0, white)" stroke-width="0.8" stroke-miterlimit="10"/>
</g>
</svg>
