<svg preserveAspectRatio="none" width="100%" height="100%" overflow="visible" style="display: block;" viewBox="0 0 63.2598 7.00001" fill="none" xmlns="http://www.w3.org/2000/svg">
<g id="Group">
<path id="Vector" d="M5.72203 6.94001L4.01471 7.00001H3.27913L1.80797 6.94001C0.627177 6.81601 0.038717 6.16401 0.038717 4.97601L0 3.67201C0 3.15201 0.00387478 2.76401 0.0154892 2.51201C0.0271036 2.26001 0.0735593 1.90401 0.158732 1.45201C0.243904 1.00001 0.452961 0.656013 0.785907 0.424013C1.11885 0.192013 1.57569 0.0760134 2.16802 0.0760134C2.43128 0.0440134 2.68293 0.0240128 2.91909 0.0160128C3.15525 0.00801281 3.43012 0.00401329 3.74758 0.00401329H4.94C5.32327 0.00401329 5.63686 0.0120138 5.87301 0.0280138C6.10917 0.0440138 6.42276 0.0960127 6.80991 0.180013C7.19706 0.264013 7.46806 0.484013 7.61905 0.844013C7.77004 1.20401 7.84747 1.68801 7.84747 2.29201H7.05381V2.22801C7.05381 1.91201 7.03446 1.65201 6.99961 1.44801C6.96477 1.24401 6.87573 1.09601 6.74023 1.00401C6.60472 0.912013 6.35308 0.844014 5.98916 0.792014C5.62524 0.744014 5.12195 0.720014 4.47929 0.720014C4.23926 0.720014 3.87921 0.732014 3.39528 0.756014C2.91134 0.780014 2.54742 0.792014 2.30352 0.792014C1.73442 0.840014 1.3705 0.944014 1.21177 1.10801C1.05304 1.26801 0.952381 1.55201 0.913666 1.94801C0.874952 2.34801 0.851726 2.71201 0.843983 3.03601C0.83624 3.36401 0.832369 3.67601 0.832369 3.97201C0.832369 4.84401 0.917539 5.44801 1.08401 5.78001C1.25436 6.11201 1.69957 6.27601 2.43128 6.27601H5.46264C6.07046 6.27601 6.49632 6.20001 6.73248 6.05201C6.97251 5.90401 7.08866 5.54401 7.08866 4.98001V4.70801H7.92489C7.92489 5.57601 7.79326 6.16801 7.52613 6.48001C7.26287 6.79201 6.65893 6.94801 5.71816 6.94801L5.72203 6.94001Z" fill="var(--fill-0, #999AC4)"/>
<path id="Vector_2" d="M17.2977 4.792C17.2977 5.76 17.1119 6.364 16.7364 6.604C16.3608 6.844 15.6562 6.964 14.6148 6.964L13.283 6.996L11.386 6.964C10.7317 6.964 10.2516 6.816 9.94967 6.516C9.64769 6.22 9.49671 5.732 9.49671 5.052V0.0839997H10.302V4.936C10.302 5.48 10.422 5.828 10.6581 5.984C10.8943 6.14 11.3047 6.212 11.8815 6.212L13.3024 6.264L14.8432 6.212C15.4665 6.212 15.8962 6.132 16.1363 5.976C16.3763 5.82 16.4925 5.452 16.4925 4.872V0.0839997H17.2977V4.792Z" fill="var(--fill-0, #999AC4)"/>
<path id="Vector_3" d="M26.7712 2.104C26.7712 2.72 26.6822 3.144 26.5079 3.372C26.3337 3.6 25.9504 3.76 25.362 3.848C25.8072 3.908 26.1324 4.02 26.3415 4.18C26.5505 4.34 26.6551 4.632 26.6551 5.056V6.912H25.8614V5.392C25.8614 4.884 25.7569 4.552 25.5478 4.388C25.3388 4.224 24.9748 4.14 24.4599 4.14H19.9381V6.912H19.1328V0.0679993H24.5257C25.3271 0.0679993 25.9001 0.208 26.2485 0.484C26.597 0.76 26.7712 1.3 26.7712 2.1V2.104ZM25.935 2.052C25.935 1.52 25.8111 1.172 25.5672 1.012C25.3233 0.852 24.9168 0.772 24.3554 0.772H19.9342V3.46H24.3748C24.9594 3.46 25.362 3.364 25.5904 3.176C25.8188 2.988 25.935 2.612 25.935 2.052Z" fill="var(--fill-0, #999AC4)"/>
<path id="Vector_4" d="M28.2346 6.92H27.2938L31.2079 0.0759995H32.2726L36.2214 6.92H35.3L34.4212 5.38H29.1018L28.2385 6.92H28.2346ZM29.4851 4.692H34.0302L31.7422 0.679999L29.4851 4.692Z" fill="var(--fill-0, #999AC4)"/>
<path id="Vector_5" d="M42.5165 6.94L40.8091 7H40.0736L38.6024 6.94C37.4216 6.816 36.8331 6.164 36.8331 4.976L36.7944 3.672C36.7944 3.152 36.7983 2.764 36.8099 2.512C36.8215 2.26 36.868 1.904 36.9532 1.452C37.0383 0.999999 37.2474 0.655999 37.5803 0.423999C37.9133 0.191999 38.3701 0.0759995 38.9624 0.0759995C39.2257 0.0439995 39.4774 0.0239989 39.7135 0.0159989C39.9497 0.00799887 40.2245 0.00399936 40.542 0.00399936H41.7344C42.1177 0.00399936 42.4313 0.0119999 42.6674 0.0279999C42.9036 0.0439999 43.2172 0.0959988 43.6043 0.179999C43.9915 0.263999 44.2625 0.483999 44.4135 0.843999C44.5645 1.204 44.6419 1.688 44.6419 2.292H43.8482V2.228C43.8482 1.912 43.8289 1.652 43.794 1.448C43.7592 1.244 43.6702 1.096 43.5347 1.004C43.3992 0.911999 43.1475 0.844 42.7836 0.792C42.4197 0.744 41.9164 0.72 41.2737 0.72C41.0337 0.72 40.6736 0.732 40.1897 0.756C39.7058 0.78 39.3419 0.792 39.0979 0.792C38.5288 0.84 38.1649 0.944 38.0062 1.108C37.8475 1.268 37.7468 1.552 37.7081 1.948C37.6694 2.348 37.6461 2.712 37.6384 3.036C37.6307 3.364 37.6268 3.676 37.6268 3.972C37.6268 4.844 37.712 5.448 37.8784 5.78C38.0449 6.112 38.494 6.276 39.2257 6.276H42.2571C42.8649 6.276 43.2907 6.2 43.5269 6.052C43.7669 5.904 43.8831 5.544 43.8831 4.98V4.708H44.7193C44.7193 5.576 44.5877 6.168 44.3206 6.48C44.0573 6.792 43.4533 6.948 42.5126 6.948L42.5165 6.94Z" fill="var(--fill-0, #999AC4)"/>
<path id="Vector_6" d="M46.1827 6.92H45.242L49.156 0.0759995H50.2207L54.1696 6.92H53.2482L52.3693 5.38H47.0499L46.1866 6.92H46.1827ZM47.4332 4.692H51.9783L49.6903 0.679999L47.4332 4.692Z" fill="var(--fill-0, #999AC4)"/>
<path id="Vector_7" d="M57.1003 0H60.031C61.4092 0 62.2919 0.187999 62.6791 0.567999C63.0662 0.947999 63.2598 1.832 63.2598 3.22V3.684C63.2598 4.176 63.2327 4.696 63.1746 5.24C63.1165 5.784 62.9307 6.204 62.6094 6.496C62.288 6.792 61.808 6.936 61.1653 6.936C60.9679 6.956 60.7124 6.972 60.4065 6.976C60.0968 6.984 59.8064 6.988 59.5277 6.988H57.8668C57.4642 6.988 57.0732 6.968 56.7015 6.928C56.326 6.888 56.0124 6.812 55.7569 6.7C55.5014 6.592 55.2923 6.4 55.1297 6.128C54.9671 5.856 54.8626 5.504 54.8161 5.072C54.7697 4.64 54.7464 4.128 54.7464 3.54C54.7464 2.984 54.7542 2.584 54.7658 2.34C54.7774 2.096 54.8316 1.748 54.9284 1.296C55.0252 0.843999 55.2575 0.512 55.6291 0.308C56.0008 0.104 56.4886 0 57.1003 0ZM57.2745 6.232L58.9896 6.272H59.8181C60.2904 6.272 60.7627 6.248 61.2427 6.2C61.7228 6.152 62.0364 5.988 62.1951 5.712C62.35 5.436 62.4274 5.016 62.4274 4.464V3.056C62.4274 2.624 62.4119 2.248 62.3771 1.932C62.3422 1.612 62.2726 1.368 62.1603 1.2C62.048 1.032 61.9009 0.924 61.7189 0.872C61.537 0.82 61.3512 0.787999 61.1615 0.767999C60.9717 0.751999 60.7704 0.743999 60.5614 0.743999L59.0012 0.723999L57.4603 0.743999C56.7054 0.743999 56.2098 0.844 55.9698 1.048C55.7298 1.252 55.6136 1.728 55.6136 2.484L55.5827 3.516V4.02C55.5827 4.884 55.6717 5.472 55.8498 5.776C56.0279 6.08 56.5041 6.236 57.2745 6.236V6.232Z" fill="var(--fill-0, #999AC4)"/>
</g>
</svg>
