<svg preserveAspectRatio="none" width="100%" height="100%" overflow="visible" style="display: block;" viewBox="0 0 52.7487 7" fill="none" xmlns="http://www.w3.org/2000/svg">
<g id="Group">
<path id="Vector" d="M4.01084 3.544H8.32365L8.33527 4.152C8.33527 5.212 8.18428 5.952 7.88231 6.372C7.58033 6.792 6.91444 7 5.88076 7H3.10104C1.84282 7 1.01046 6.808 0.607823 6.42C0.205191 6.032 0 5.196 0 3.912V3.532C0 2.196 0.15099 1.28 0.456836 0.780001C0.762682 0.280001 1.49826 0.0320005 2.67132 0.0320005L4.33992 0.012L5.14518 5.18799e-07L6.46535 0.0520002C7.10027 0.0520002 7.55323 0.216001 7.82036 0.544001C8.08749 0.872001 8.223 1.384 8.223 2.072H7.42935C7.42935 1.468 7.30546 1.1 7.06156 0.960001C6.81766 0.820001 6.36082 0.748 5.69106 0.748L4.33992 0.736001L3.55401 0.724001L2.2532 0.776C1.74991 0.824 1.39373 0.924001 1.18467 1.072C0.975609 1.224 0.87108 1.6 0.87108 2.2L0.832369 3.964C0.832369 4.704 0.882696 5.268 0.987225 5.652C1.09175 6.04 1.62602 6.232 2.59001 6.232L4.27797 6.252L4.9942 6.264H5.14131C5.44715 6.264 5.84592 6.24 6.34147 6.192C6.83701 6.144 7.1506 5.98 7.2861 5.7C7.41773 5.42 7.48355 4.928 7.48355 4.22H4.00697V3.532L4.01084 3.544Z" fill="var(--fill-0, white)"/>
<path id="Vector_2" d="M9.92257 6.924H8.9818L12.8959 0.0799993H13.9605L17.9094 6.924H16.988L16.1092 5.384H10.7898L9.92644 6.924H9.92257ZM11.1731 4.696H15.7182L13.4301 0.683999L11.1731 4.696Z" fill="var(--fill-0, white)"/>
<path id="Vector_3" d="M23.7786 6.924L19.6477 0.775999V6.924H18.8424V0.076H20.151L24.1076 5.944L28.0798 0.076H29.369V6.92H28.5637V0.772L24.4212 6.92H23.7747L23.7786 6.924Z" fill="var(--fill-0, white)"/>
<path id="Vector_4" d="M32.2222 6.924H31.417V0.076H32.2222V6.92V6.924Z" fill="var(--fill-0, white)"/>
<path id="Vector_5" d="M34.2702 6.924V0.076H35.6059L41.7189 6.264V0.076H42.5242V6.92H41.204L35.0716 0.7V6.92H34.2664L34.2702 6.924Z" fill="var(--fill-0, white)"/>
<path id="Vector_6" d="M48.4243 3.544H52.7371L52.7487 4.152C52.7487 5.212 52.5978 5.952 52.2958 6.372C51.9938 6.792 51.3279 7 50.2942 7H47.5145C46.2563 7 45.4239 6.808 45.0213 6.42C44.6187 6.032 44.4135 5.196 44.4135 3.912V3.532C44.4135 2.196 44.5645 1.28 44.8703 0.78C45.1762 0.28 45.9117 0.032 47.0848 0.032L48.7534 0.0119995L49.5587 0L50.8788 0.0519997C51.5137 0.0519997 51.9667 0.216 52.2338 0.544C52.501 0.872 52.6365 1.384 52.6365 2.072H51.8428C51.8428 1.468 51.7189 1.1 51.475 0.960001C51.2311 0.820001 50.7743 0.748 50.1045 0.748L48.7534 0.736L47.9675 0.724001L46.6667 0.775999C46.1634 0.823999 45.8072 0.924 45.5981 1.072C45.3891 1.224 45.2846 1.6 45.2846 2.2L45.2458 3.964C45.2458 4.704 45.2962 5.268 45.4007 5.652C45.5052 6.036 46.0395 6.232 47.0035 6.232L48.6914 6.252L49.4077 6.264H49.5587C49.8645 6.264 50.2633 6.24 50.7588 6.192C51.2544 6.144 51.5679 5.98 51.7034 5.7C51.8351 5.42 51.9009 4.928 51.9009 4.22H48.4243V3.532V3.544Z" fill="var(--fill-0, white)"/>
</g>
</svg>
