<svg preserveAspectRatio="none" width="100%" height="100%" overflow="visible" style="display: block;" viewBox="0 0 18.9969 11.3078" fill="none" xmlns="http://www.w3.org/2000/svg">
<g id="Group">
<path id="Vector" d="M0.0316198 0H4.27838C6.17312 0 6.88316 0.0629334 7.42002 0.29988C8.16221 0.615055 9.12501 1.51419 9.12501 2.98072C9.12501 4.10049 8.76181 4.65235 7.68833 5.2358C8.95132 5.75684 9.53563 6.54514 9.53563 8.01167C9.53563 9.87313 8.09871 11.1188 5.95174 11.1188H0V9.30495H0.868426V1.81355H0.0316198V0ZM3.1419 1.81355V4.51043H5.33605C6.28329 4.51043 6.93085 3.92724 6.93085 3.09104C6.93085 2.34986 6.20448 1.81356 5.17844 1.81356L3.1419 1.81355ZM3.1419 6.26105V9.30495H5.47837C6.47279 9.30495 7.24659 8.65857 7.24659 7.80657C7.24659 6.8761 6.45697 6.26105 5.25698 6.26105H3.1419Z" fill="var(--fill-0, white)"/>
<path id="Vector_2" d="M18.8548 8.34288C18.4761 10.1722 16.9445 11.3078 14.8922 11.3078C12.5241 11.3078 10.7875 9.46292 10.7875 6.87609C10.7875 4.32138 12.5399 2.42884 14.9083 2.42884C16.25 2.42884 17.4337 3.05995 18.1603 4.14813C18.9336 5.33084 18.9652 6.45009 18.9969 7.3021H12.9031C13.1084 9.49425 14.5451 9.60431 14.9394 9.60431C15.7764 9.60431 16.3288 9.21016 16.6607 8.34288H18.8548ZM16.6918 5.85084C16.55 4.77845 15.9027 4.19526 14.9082 4.19526C13.9921 4.19526 13.2821 4.81031 13.0135 5.85084H16.6918Z" fill="var(--fill-0, white)"/>
</g>
</svg>
