<svg preserveAspectRatio="none" width="100%" height="100%" overflow="visible" style="display: block;" viewBox="0 0 45.9899 18.1135" fill="none" xmlns="http://www.w3.org/2000/svg">
<g id="Group">
<path id="Vector" d="M4.39075 0L4.57703 0.54014L0.1863 2.04869L0 1.50859L4.39075 0Z" fill="var(--fill-0, #9D3144)"/>
<path id="Vector_2" d="M5.18936 2.15269L5.55021 2.7992L2.91069 6.02061L2.91703 6.03196L6.30353 4.14901L6.58209 4.64807L2.52507 6.9038L2.14208 6.21757L4.70148 3.09277L4.69514 3.08142L1.41089 4.90747L1.13236 4.40841L5.18936 2.15269Z" fill="var(--fill-0, #9D3144)"/>
<path id="Vector_3" d="M5.01459 10.1029L4.63609 9.67435L7.73894 6.944L6.96903 6.07233L7.34959 5.73751L9.27218 7.91417L8.89165 8.24904L8.11745 7.37249L5.01459 10.1029Z" fill="var(--fill-0, #9D3144)"/>
<path id="Vector_4" d="M10.2914 8.81476L12.2039 10.2617L11.8975 10.6652L10.4411 9.56335L9.56103 10.7221L10.9345 11.7613L10.6281 12.1648L9.25458 11.1256L8.24883 12.45L9.76744 13.5989L9.46099 14.0024L7.48628 12.5084L10.2914 8.81476Z" fill="var(--fill-0, #9D3144)"/>
<path id="Vector_5" d="M13.5065 11.0531L14.8663 11.6907C15.5256 11.9999 15.7611 12.5836 15.4486 13.2475C15.2329 13.7058 14.8472 14.1131 14.3033 14.0015L14.2978 14.0132C14.6434 14.2255 14.7084 14.6218 14.5633 14.9912L14.2612 15.7246C14.0663 16.1997 14.0875 16.3531 14.1752 16.4875L13.5512 16.1949C13.5044 16.0654 13.6097 15.7347 13.6947 15.5235L13.9664 14.8548C14.1962 14.2597 13.8949 14.0754 13.63 13.9512L12.9295 13.6227L12.0501 15.4911L11.5321 15.2482L13.5065 11.0531ZM13.1286 13.1997L13.6407 13.4398C13.9468 13.5833 14.506 13.8455 14.8877 13.0347C15.0812 12.6235 14.9262 12.2352 14.4436 12.0089L13.8255 11.7191L13.1286 13.1997Z" fill="var(--fill-0, #9D3144)"/>
<path id="Vector_6" d="M17.4268 12.7034L18.1513 12.8605L18.8281 16.9664L18.8408 16.9692L19.6638 13.1885L20.2231 13.3099L19.2371 17.839L18.4681 17.6722L17.8109 13.6901L17.7982 13.6874L17 17.3538L16.4408 17.2325L17.4268 12.7034Z" fill="var(--fill-0, #9D3144)"/>
<path id="Vector_7" d="M22.7612 13.4577L23.5285 13.4453L24.8522 18.0592L24.254 18.0689L23.9017 16.8021L22.4191 16.8261L22.0951 18.1038L21.4968 18.1135L22.7612 13.4577ZM22.5286 16.3569L23.7771 16.3367L23.149 14.1071L23.136 14.1073L22.5286 16.3569Z" fill="var(--fill-0, #9D3144)"/>
<path id="Vector_8" d="M27.9861 17.5775L27.4245 17.6877L26.6263 13.6367L25.484 13.8609L25.3862 13.3641L28.2387 12.8042L28.3366 13.301L27.1879 13.5265L27.9861 17.5775Z" fill="var(--fill-0, #9D3144)"/>
<path id="Vector_9" d="M29.5843 12.3255L30.1206 12.1257L31.744 16.4685L31.2078 16.6682L29.5843 12.3255Z" fill="var(--fill-0, #9D3144)"/>
<path id="Vector_10" d="M35.421 11.9835C36.0166 12.9895 36.4639 14.166 35.3608 14.8167C34.2577 15.4673 33.4408 14.5088 32.8452 13.5028C32.2496 12.4968 31.8023 11.3204 32.9054 10.6697C34.0085 10.019 34.8253 10.9775 35.421 11.9835ZM33.3604 13.199C33.9064 14.1211 34.4394 14.8172 35.1225 14.4142C35.8056 14.0113 35.4518 13.2096 34.9058 12.2874C34.3598 11.3652 33.8268 10.6691 33.1437 11.0721C32.4605 11.475 32.8143 12.2768 33.3604 13.199Z" fill="var(--fill-0, #9D3144)"/>
<path id="Vector_11" d="M35.4868 9.03644L36.0233 8.52559L39.8098 10.2674L39.8192 10.2585L37.1433 7.45903L37.5574 7.06471L40.7631 10.4184L40.1937 10.9606L36.521 9.27192L36.5116 9.2809L39.1066 11.9958L38.6925 12.3901L35.4868 9.03644Z" fill="var(--fill-0, #9D3144)"/>
<path id="Vector_12" d="M39.1106 5.03668L39.5373 4.39997L44.0915 5.94106L43.7588 6.43745L42.5148 6.00522L41.6903 7.23546L42.5582 8.22889L42.2256 8.72532L39.1106 5.03668ZM41.3662 6.87847L42.0605 5.84247L39.8663 5.08827L39.8591 5.09908L41.3662 6.87847Z" fill="var(--fill-0, #9D3144)"/>
<path id="Vector_13" d="M40.7626 2.234L40.9778 1.70463L44.8109 3.25641L45.5198 1.51189L45.9899 1.70221L45.0659 3.9761L40.7626 2.234Z" fill="var(--fill-0, #9D3144)"/>
</g>
</svg>
