<svg preserveAspectRatio="none" width="100%" height="100%" overflow="visible" style="display: block;" viewBox="0 0 55.4323 11.8918" fill="none" xmlns="http://www.w3.org/2000/svg">
<g id="Group">
<path id="Vector" d="M5.39931 6.08805H9.25151V11.6079H7.98827V9.88918C7.64089 10.4566 7.48329 10.6614 7.16727 10.9297C6.44116 11.5608 5.55692 11.8918 4.60994 11.8918C2.02098 11.8918 0 9.36814 0 6.11965C0 2.83905 2.00516 0.284084 4.57858 0.284084C5.63625 0.284084 6.88315 0.583973 7.89364 2.20847V0.489185H9.06175V4.02201H7.84621C7.68859 3.40697 7.49909 3.01282 7.21472 2.6658C6.58323 1.89279 5.73112 1.45125 4.84688 1.45125C3.4732 1.45125 1.49992 2.61868 1.49992 6.05621C1.49992 8.72175 2.93659 10.7088 4.86244 10.7088C6.26774 10.7088 7.59371 9.55744 7.9092 8.07486C7.9569 7.85448 7.97219 7.63358 7.98826 7.17624H5.3993L5.39931 6.08805Z" fill="var(--fill-0, white)"/>
<path id="Vector_2" d="M18.7397 11.6079H16.3397V10.1096C15.6613 11.1667 14.7454 11.7659 13.4983 11.7659C11.9195 11.7659 10.767 10.6775 10.767 9.21095C10.767 7.60224 12.1878 6.79737 15.5345 6.4822C15.6455 6.46641 15.9926 6.43508 16.3242 6.40322V5.53594C16.3242 4.57439 15.5822 3.97437 14.4139 3.97437C13.1823 3.97437 12.6298 4.38458 12.3773 5.47276H11.0985C11.2878 4.62153 11.5405 4.17947 12.0458 3.7382C12.6145 3.26506 13.4036 3.01282 14.319 3.01282C16.0559 3.01282 17.54 3.81718 17.54 5.94588V10.6145H18.7397V11.6079ZM16.3242 7.2705L15.5506 7.36528C12.9614 7.68071 12.0932 8.15384 12.0932 9.22622C12.0932 10.1096 12.8668 10.8349 13.8454 10.8349C15.3453 10.8349 16.3242 9.41578 16.3242 8.64277V7.2705Z" fill="var(--fill-0, white)"/>
<path id="Vector_3" d="M22.252 4.71553C22.631 4.13233 23.3888 2.96516 24.9359 2.96516C26.0568 2.96516 26.7041 3.54914 26.9094 4.73159C27.241 4.16419 27.3989 3.95909 27.7146 3.69106C28.267 3.20187 28.8669 2.96516 29.53 2.96516C30.8246 2.96516 31.5824 3.80112 31.5824 5.26765V10.6145H32.7507V11.6079H30.3668V5.7097C30.3668 4.52648 29.9723 3.99042 29.151 3.99042C27.683 3.99042 26.9094 5.75684 26.9094 6.32475V10.6145H28.125V11.6079H25.6939V5.51987C25.6939 4.46356 25.2991 3.99042 24.4781 3.99042C23.1679 3.99042 22.2365 5.61491 22.2365 6.38794V10.6145H23.4362V11.6079H19.7891V10.6145H21.0207V4.11627H19.7891V3.10708H22.2521L22.252 4.71553Z" fill="var(--fill-0, white)"/>
<path id="Vector_4" d="M34.0137 0H36.3818V4.90535C36.6976 4.3061 37.6764 3.02862 39.1603 3.02862C41.0706 3.02862 42.523 4.96854 42.523 7.46032C42.523 9.77834 40.9759 11.718 39.1289 11.718C37.629 11.718 36.9029 10.7246 36.3818 10.015V11.6079H33.9663V10.6145H35.1663V0.994173H34.0137L34.0137 0ZM36.3818 8.02771C36.3818 9.43131 37.5185 10.6775 38.8132 10.6775C40.2656 10.6775 41.1968 9.36814 41.1968 7.33421C41.1968 5.37848 40.2656 4.03755 38.8606 4.03755C37.629 4.03755 36.3818 5.40982 36.3818 6.60832V8.02771Z" fill="var(--fill-0, white)"/>
<path id="Vector_5" d="M43.4846 0H45.9001V10.6145H47.0368V11.6079H43.469V10.6145H44.6845V0.994173H43.4846V0Z" fill="var(--fill-0, white)"/>
<path id="Vector_6" d="M55.2431 9.27387C55.0694 9.85732 54.8799 10.2043 54.5642 10.5666C53.8852 11.3557 52.9538 11.7812 51.8959 11.7812C49.591 11.7812 47.9809 9.98344 47.9809 7.39714C47.9809 4.90535 49.591 2.99677 51.6908 2.99677C53.8064 2.99677 55.4323 4.63732 55.4323 7.60224H49.2911C49.4015 8.84787 49.6859 9.54216 50.27 10.1096C50.712 10.5356 51.233 10.7407 51.8645 10.7407C52.8434 10.7407 53.4432 10.2986 53.8694 9.27387H55.2431ZM54.0276 6.67125C53.9327 5.61491 53.6957 5.03146 53.2066 4.55834C52.8276 4.21132 52.3539 4.03755 51.8013 4.03755C50.7752 4.03755 49.9226 4.73159 49.5439 5.85161C49.4806 6.05621 49.4015 6.37189 49.3702 6.67125H54.0276Z" fill="var(--fill-0, white)"/>
</g>
</svg>
