<svg preserveAspectRatio="none" width="100%" height="100%" overflow="visible" style="display: block;" viewBox="0 0 32.4378 32.3766" fill="none" xmlns="http://www.w3.org/2000/svg">
<g id="Group">
<path id="Vector" d="M16.2189 32.3766C25.1764 32.3766 32.4378 25.1289 32.4378 16.1883C32.4378 7.24775 25.1764 0 16.2189 0C7.26145 0 0 7.24775 0 16.1883C0 25.1289 7.26145 32.3766 16.2189 32.3766Z" fill="var(--fill-0, #26467A)"/>
<path id="Vector_2" d="M3.32457 15.4303C3.32457 15.4303 3.52007 15.2727 3.36968 15.2727C3.2193 15.2727 2.41475 15.2727 2.33203 15.2727C2.24932 15.2727 2.15909 15.3853 2.09142 15.4003C2.02374 15.4153 1.79065 15.5128 1.75305 15.5579C1.71546 15.6029 1.57259 15.6179 1.57259 15.8956C1.57259 16.1733 1.57259 17.3516 1.57259 17.4716C1.57259 17.5917 1.70794 17.5542 1.70794 17.6968C1.70794 17.8394 1.71546 18.3272 1.72298 18.3798C1.7305 18.4323 1.83576 18.4623 1.82825 18.5374C1.82073 18.6124 1.80569 18.815 1.8508 18.8901C1.89592 18.9651 1.8508 19.0477 1.99367 19.0552C2.13653 19.0627 2.42226 19.1077 2.42226 19.1077C2.42226 19.1077 2.43401 19.1603 2.49957 19.2053C2.56513 19.2503 2.67792 19.3479 2.76063 19.3404C2.84334 19.3329 3.03884 19.3629 3.11403 19.1978C3.18922 19.0327 3.13659 18.9051 3.21178 18.8451C3.28697 18.785 3.46743 18.6799 3.48247 18.5974C3.49751 18.5148 3.60277 18.4323 3.61781 18.2597C3.63285 18.087 3.64789 17.997 3.70052 17.9595C3.75316 17.9219 3.77571 17.8394 3.77571 17.7343C3.77571 17.6292 3.79075 17.4191 3.82835 17.3516C3.86594 17.284 4.0464 17.1864 4.07648 17.0964C4.10656 17.0063 4.11408 16.9538 4.16671 16.9088C4.21935 16.8637 4.29454 16.8037 4.28702 16.5935C4.2795 16.3834 4.18175 16.4284 4.17423 16.3534C4.16671 16.2783 4.16671 16.1282 4.15919 15.9931C4.15167 15.8581 4.15919 15.8055 4.2043 15.723C4.24942 15.6404 4.29558 15.6554 4.28754 15.5053C4.2795 15.3552 4.34821 15.2276 4.28754 15.2126C4.22686 15.1976 3.97121 15.2126 3.97121 15.2126C3.97121 15.2126 3.92609 15.4003 3.91857 15.4753C3.91105 15.5503 3.88098 15.6929 3.83586 15.738C3.79075 15.783 3.76067 15.7605 3.73811 15.8656C3.71556 15.9706 3.66292 16.0006 3.64788 16.0457C3.63284 16.0907 3.61781 16.1486 3.60277 16.2322C3.58773 16.3159 3.58773 16.4209 3.53509 16.466C3.48246 16.511 3.45238 16.511 3.40727 16.556C3.36215 16.601 3.36967 16.5935 3.30952 16.6236C3.24936 16.6536 3.25688 16.6611 3.21177 16.6761C3.16665 16.6911 3.27944 16.7286 3.16665 16.6911C3.05387 16.6536 3.09898 16.7512 3.05387 16.6536C3.00875 16.556 2.93679 16.5485 2.9427 16.4885C2.9486 16.4284 2.90672 16.466 2.9427 16.3684C2.97868 16.2708 2.9862 16.1883 3.00123 16.1282C3.01627 16.0682 3.03131 16.0607 3.01627 15.9631C3.00123 15.8656 2.95612 15.8656 3.04635 15.768C3.13659 15.6705 3.32457 15.4303 3.32457 15.4303Z" fill="var(--fill-0, white)"/>
<path id="Vector_3" d="M3.02347 14.3196C3.12874 14.4171 3.09866 14.5072 3.38439 14.5072C3.67012 14.5072 4.04608 14.5072 4.15887 14.5072C4.27166 14.5072 4.39196 14.4246 4.407 14.3196C4.42204 14.2145 4.34685 14.192 4.27918 14.1394C4.2115 14.0869 4.02353 14.0119 3.94833 14.0119C3.87314 14.0119 3.15882 14.0344 3.13626 14.0119C3.1137 13.9893 2.99662 13.9218 2.94237 13.8993C2.88812 13.8768 2.7603 13.8693 2.73022 13.8693C2.70014 13.8693 2.65503 13.9293 2.65503 14.0269C2.65503 14.1244 2.69262 14.237 2.74526 14.267C2.7979 14.297 3.02347 14.3196 3.02347 14.3196Z" fill="var(--fill-0, white)"/>
<path id="Vector_4" d="M12.8962 15.3928C13.061 15.378 13.1519 15.3177 13.1143 15.1901C13.0767 15.0625 12.9338 15.0025 12.8962 14.8524C12.8586 14.7023 13.0095 14.4772 13.0095 14.4772H14.1068C14.1068 14.4772 14.182 14.98 14.2948 15.0926C14.4076 15.2051 14.776 15.3102 14.8287 15.3552C14.8813 15.4003 15.0242 15.3552 14.9189 15.2652C14.8136 15.1751 14.6933 14.92 14.6933 14.7473C14.6933 14.5747 14.6933 14.252 14.6933 14.1845C14.6933 14.1169 14.8211 13.9143 14.9189 13.8768C15.0166 13.8392 15.0618 13.8167 15.1821 13.7642C15.3024 13.7116 15.3324 13.7417 15.3324 13.6366C15.3324 13.5315 15.4678 13.3289 15.4828 13.1112C15.4979 12.8936 15.4979 12.6384 15.5655 12.5559C15.6332 12.4733 15.7234 12.4658 15.8588 12.4583C15.9941 12.4508 16.2014 12.4508 16.2294 12.3983C16.2573 12.3457 16.3701 12.3232 16.4754 12.3157C16.5806 12.3082 16.8814 12.3457 16.9491 12.3157C17.0167 12.2857 17.0619 12.1731 17.1897 12.1656C17.3175 12.1581 17.4905 12.2557 17.513 12.1656C17.5356 12.0756 17.5356 11.978 17.4754 11.8879C17.4153 11.7979 17.3626 11.6628 17.3326 11.6253C17.3025 11.5877 17.2724 11.4752 17.1897 11.4752C17.107 11.4752 16.8739 11.3551 16.9265 11.2575C16.9792 11.1599 17.0919 11.0924 17.0919 11.0924C17.0919 11.0924 17.2273 11.1299 17.1972 11.0099C17.1671 10.8898 17.2122 10.6946 17.1822 10.6571C17.1521 10.6196 17.0769 10.5971 16.9791 10.507C16.8814 10.417 16.8062 10.2819 16.7611 10.2143C16.716 10.1468 16.4678 9.65896 16.4152 9.5839C16.3626 9.50885 16.137 9.35875 16.0242 9.51636C15.9114 9.67396 15.0768 10.5896 14.9565 10.6871C14.8362 10.7847 14.7535 10.7847 14.7384 10.8898C14.7234 10.9948 14.6256 11.1149 14.5053 11.2125C14.385 11.31 14.1294 11.5427 14.1444 11.3551C14.1595 11.1675 14.1745 11.0624 14.1444 10.8748C14.1143 10.6871 14.1444 10.6571 14.0166 10.5145C13.8888 10.3719 13.8737 10.3794 13.8436 10.2593C13.8136 10.1393 13.9113 9.92162 13.9489 9.86908C13.9865 9.81655 14.2647 9.77902 14.2798 9.61391C14.2948 9.4488 14.2647 9.37375 14.2271 9.2912C14.1895 9.20864 14.2271 9.08106 14.3023 8.99851C14.3775 8.91595 14.7459 8.87842 14.9339 8.62325C15.1219 8.36808 15.0693 8.13542 15.1219 8.03786C15.1745 7.94029 15.1223 7.80521 15.2086 7.70013C15.2949 7.59506 15.3324 7.48249 15.3475 7.43746C15.3625 7.39243 15.4452 7.36992 15.4076 7.27985C15.37 7.18979 15.3024 7.18979 15.3024 7.09973C15.3024 7.00967 15.3099 6.7545 15.3324 6.7545C15.355 6.7545 15.5129 6.61941 15.5279 6.54436C15.543 6.46931 15.4001 6.34923 15.4904 6.25167C15.5806 6.1541 15.6708 6.07155 15.746 6.16161C15.8212 6.25167 16.1821 6.55187 16.1972 6.58189C16.2122 6.61191 16.1413 7.2048 16.2294 7.27985C16.3175 7.3549 16.5656 7.41494 16.5581 7.69263C16.5506 7.97031 16.3776 8.07538 16.3024 8.18045C16.2272 8.28552 16.1596 8.60824 16.2799 8.66828C16.4002 8.72832 16.543 8.78085 16.6483 8.87842C16.7536 8.97598 16.8438 9.11107 16.9416 9.1561C17.0393 9.20113 17.1746 9.17111 17.2198 8.98349C17.2649 8.79586 17.2724 8.68328 17.31 8.56321C17.3476 8.44312 17.325 8.38309 17.4228 8.32305C17.5205 8.26301 17.7085 8.20296 17.701 8.03035C17.6935 7.85774 17.6108 7.36991 17.498 7.18979C17.3852 7.00967 17.3476 6.97964 17.31 6.88959C17.2724 6.79953 17.2574 6.762 17.2273 6.72448C17.1972 6.68695 17.1145 6.67945 17.0543 6.62691C16.9942 6.57438 16.8137 6.57438 16.7837 6.52935C16.7536 6.48432 16.7235 6.48432 16.6558 6.40927C16.5882 6.33422 16.543 6.24416 16.4979 6.21414C16.4528 6.18412 16.4227 6.17425 16.4302 6.12289C16.4378 6.07154 16.5054 5.91393 16.6558 5.83138C16.8062 5.74883 17.0017 5.7038 17.1145 5.71881C17.2273 5.73382 17.3701 5.79386 17.4228 5.75633C17.4754 5.71881 17.7235 5.5537 17.7762 5.53869C17.8288 5.52368 17.8965 5.44863 17.9642 5.47114C18.0318 5.49365 18.3476 5.46696 18.3777 5.46696C18.4078 5.46696 18.4303 5.64375 18.31 5.72631C18.1897 5.80886 17.9566 5.95896 17.8965 6.12408C17.8363 6.28918 17.7912 6.49933 17.8589 6.63442C17.9266 6.76951 18.1672 6.85957 18.295 6.88208C18.4228 6.9046 18.5807 6.74699 18.6108 6.82955C18.6409 6.9121 18.7687 7.12975 18.6935 7.21231C18.6183 7.29486 18.6108 7.72265 18.7837 7.94779C18.9567 8.17294 19.2349 8.66077 19.3477 8.8484C19.4605 9.03602 20.1297 9.54636 20.1673 9.64393C20.2049 9.7415 20.5056 9.95163 20.5959 9.92912C20.6861 9.90661 20.7011 9.8916 20.6936 9.83906C20.6861 9.78652 20.641 9.6064 20.5658 9.50133C20.4906 9.39626 20.4981 9.27618 20.5132 9.17111C20.5282 9.06604 20.5432 8.97598 20.5508 8.89343C20.5583 8.81087 20.5316 8.72081 20.6953 8.57822C20.859 8.43563 20.859 8.29303 20.9643 8.21047C21.0696 8.12792 21.032 8.00034 21.0019 7.89526C20.9718 7.79019 20.9418 7.7977 20.8966 7.73766C20.8515 7.67762 20.8365 7.68512 20.8139 7.62509C20.7914 7.56504 20.6786 7.35491 20.7312 7.24233C20.7839 7.12975 20.7538 7.03969 20.7538 7.03969C20.7538 7.03969 20.9982 6.95714 21.0339 6.92711C21.0696 6.8971 21.0658 6.58939 21.0339 6.49182C21.0019 6.39426 20.8816 6.29669 20.8515 6.19913C20.8215 6.10156 20.9267 5.98148 20.829 5.97398C20.7312 5.96647 20.6711 5.95896 20.7162 5.89893C20.7613 5.83889 20.9794 5.73382 21.0921 5.59873C21.2049 5.46364 21.2651 5.37358 21.235 5.27601C21.2049 5.17844 20.9117 4.87074 20.8215 4.80319C20.7312 4.73565 20.5959 4.60806 20.5432 4.518C20.4906 4.42794 20.4906 4.32287 20.3177 4.24032C20.1447 4.15776 20.0695 4.08271 19.9793 4.12774C19.8891 4.17277 19.7763 4.30786 19.6936 4.31537C19.6109 4.32287 19.453 4.3604 19.4454 4.30035C19.4379 4.24031 19.3552 4.22531 19.2499 4.24782C19.1447 4.27033 19.0845 4.3679 19.0544 4.45796C19.0244 4.54802 18.7687 4.93828 18.671 5.02084C18.5732 5.10339 18.2273 5.05086 18.1597 5.05836C18.092 5.06587 17.8063 5.05836 17.7837 5.05086C17.7611 5.04335 17.4153 4.80319 17.31 4.77317C17.2047 4.74315 16.9942 4.60806 16.731 4.80319C16.4678 4.99832 16.2648 5.16343 16.0844 5.15592C15.9039 5.14842 15.7986 5.14842 15.761 5.24598C15.7234 5.34355 15.6558 5.4186 15.6332 5.44111C15.6106 5.46363 15.4377 5.55369 15.3776 5.54618C15.3174 5.53868 15.1745 5.50115 15.1745 5.50115C15.1745 5.50115 15.0993 5.44111 15.0693 5.44862C15.0392 5.45612 15.0166 5.53117 15.0241 5.5612C15.0317 5.59121 14.776 5.8614 14.7234 6.11657C14.6707 6.37173 14.7835 6.64942 14.8362 6.73948C14.8888 6.82954 14.8888 6.94963 14.8662 6.96463C14.8437 6.97964 14.8286 6.95713 14.7835 7.02467C14.7384 7.09222 14.7685 7.12224 14.7159 7.15976C14.6632 7.19729 14.6557 7.18978 14.5955 7.22731C14.5354 7.26484 14.588 7.23482 14.4752 7.29486C14.3624 7.3549 14.4978 7.31737 14.2647 7.40743C14.0316 7.49749 14.0542 7.56504 13.8737 7.55753C13.6932 7.55003 13.5128 7.42244 13.4075 7.3624C13.3022 7.30236 13.197 7.26484 13.1744 7.27234C13.1519 7.27985 12.9188 7.30236 12.8135 7.32488C12.7082 7.3474 12.4977 7.32488 12.4601 7.27985C12.4225 7.23482 12.3548 7.15977 12.3323 7.08472C12.3097 7.00967 12.227 6.65693 12.024 6.6119C11.821 6.56687 11.6631 6.55186 11.648 6.47681C11.633 6.40176 11.618 6.23665 11.5277 6.14659C11.4375 6.05653 11.3397 5.94395 11.3473 5.84639C11.3548 5.74882 11.1442 5.31353 10.9337 5.22347C10.7232 5.13341 10.1743 5.14092 10.0239 5.14092C9.8735 5.14092 9.1291 5.48615 8.88849 5.78635C8.64787 6.08654 8.5802 6.11657 8.49749 6.14658C8.41478 6.1766 8.21928 6.1616 8.25687 6.31169C8.29447 6.46179 8.09897 6.52934 8.30951 6.68694C8.52004 6.84455 8.84337 6.85956 8.85089 6.93461C8.85841 7.00966 9.03135 6.88958 9.04639 7.17477C9.06143 7.45996 8.87345 7.45996 9.08399 7.62507C9.29452 7.79018 9.44491 7.83521 9.54266 8.03785C9.64041 8.24048 9.78327 8.35305 9.77575 8.48815C9.76823 8.62324 9.9111 8.80336 9.94869 8.89342C9.98629 8.98348 10.0464 9.15609 10.0164 9.3137C9.98629 9.47131 9.82087 9.6139 9.80583 9.83154C9.79079 10.0492 9.76824 10.2143 9.82087 10.2443C9.87351 10.2743 9.97126 10.3569 10.1141 10.4695C10.257 10.582 10.257 10.6946 10.1743 10.7997C10.0916 10.9048 10.0089 11.0849 9.95622 11.2125C9.90358 11.34 9.95622 11.7228 9.95622 11.8879C9.95622 12.053 10.0765 12.8861 10.2044 13.0512C10.3322 13.2163 10.5578 13.6441 10.6104 13.7492C10.663 13.8542 10.7608 13.6066 10.7833 13.4565C10.8059 13.3064 10.9638 13.1112 11.039 13.1788C11.1142 13.2463 11.1593 13.464 11.1443 13.6666C11.1292 13.8692 11.2721 14.5597 11.6556 14.8224C12.039 15.085 12.3624 15.2426 12.4827 15.2877C12.603 15.3327 12.8128 15.4003 12.8962 15.3928Z" fill="var(--fill-0, white)"/>
<path id="Vector_5" d="M13.7217 6.84457C13.7217 6.84457 13.6014 6.5894 13.7217 6.49934C13.842 6.40928 13.8946 6.24417 13.9623 6.11658C14.03 5.989 14.1052 5.8389 14.1202 5.76385C14.1353 5.6888 14.1428 5.66628 14.015 5.70381C13.8871 5.74133 13.7961 5.72632 13.695 5.73383C13.5939 5.74133 13.5037 5.77886 13.4209 5.71881C13.3382 5.65877 13.2706 5.71881 13.248 5.55371C13.2254 5.3886 13.2029 5.28353 13.1803 5.22349C13.1578 5.16344 13.0675 5.17846 13.1352 5.03586C13.2029 4.89326 13.1051 4.7957 13.248 4.73566C13.3909 4.67562 13.7894 4.59306 13.7067 4.4955C13.624 4.39793 13.7743 4.46548 13.4285 4.30037C13.0826 4.13526 13.1803 4.14573 13.06 4.11422C12.9397 4.08272 12.8344 4.12025 12.8119 4.15777C12.7893 4.19529 12.6916 4.25534 12.6089 4.30037C12.5261 4.3454 12.4886 4.39793 12.3908 4.41294C12.2931 4.42795 12.263 4.38292 12.1727 4.503C12.0825 4.62308 11.9547 4.78069 11.8645 4.9458C11.7742 5.11091 11.7517 5.246 11.7742 5.246C11.7968 5.246 12.5562 5.246 12.5562 5.246C12.5562 5.246 12.4735 5.53119 12.3908 5.62125C12.3081 5.71131 12.0224 5.90644 12.0524 6.01901C12.0825 6.13159 12.0449 6.18412 12.0449 6.18412H12.5788C12.5788 6.18412 12.6013 6.21414 12.6314 6.3117C12.6615 6.40927 12.6465 6.47681 12.7442 6.61191C12.842 6.747 13.0675 6.68695 13.1051 6.69446C13.1427 6.70197 13.3457 6.67195 13.3457 6.67195C13.3457 6.67195 13.4736 6.78453 13.5788 6.84456C13.6841 6.90461 13.7217 6.84457 13.7217 6.84457Z" fill="var(--fill-0, white)"/>
<path id="Vector_6" d="M14.5496 5.41862C14.5496 5.38109 14.6399 5.17095 14.6098 5.02085C14.5797 4.87075 14.4293 4.84073 14.3316 4.81821C14.2338 4.7957 14.0834 4.72065 14.0083 4.71314C13.9331 4.70564 13.8879 4.69813 13.9331 4.78819C13.9782 4.87825 14.062 5.05086 14.1291 5.12592C14.1962 5.20097 14.2263 5.29853 14.3316 5.34356C14.4369 5.3886 14.5496 5.41862 14.5496 5.41862Z" fill="var(--fill-0, white)"/>
<path id="Vector_7" d="M8.97791 4.44297C8.97791 4.44297 9.11326 4.1878 9.24861 4.06021C9.38395 3.93263 9.44411 3.76751 9.55689 3.69247C9.66968 3.61742 9.82006 3.46732 9.8351 3.41478C9.85014 3.36224 9.95541 3.21214 9.8351 3.23466C9.71479 3.25717 9.62457 3.21215 9.49674 3.30221C9.36891 3.39227 9.11326 3.48233 8.97791 3.57239C8.84257 3.66245 8.49668 3.84257 8.42901 3.8876C8.36134 3.93263 8.27111 3.98516 8.36886 4.02269C8.46661 4.06021 8.56436 4.15027 8.64707 4.24784C8.72978 4.3454 8.97791 4.44297 8.97791 4.44297Z" fill="var(--fill-0, white)"/>
<path id="Vector_8" d="M6.51204 5.8389C6.54211 5.75634 6.56467 5.66628 6.55715 5.60624C6.54963 5.5462 6.50452 5.45001 6.42933 5.48685C6.35414 5.52369 6.23383 5.65127 6.21879 5.67379C6.20375 5.6963 6.1436 5.78637 6.09848 5.80888C6.05337 5.83139 5.99321 5.85391 5.9857 5.90644C5.97818 5.95898 5.9857 5.98149 5.9481 6.00401C5.91051 6.02653 5.9481 6.01902 5.84283 6.07156C5.73756 6.12409 5.78268 6.10908 5.70749 6.16162C5.6323 6.21415 5.63981 6.21415 5.57214 6.26669C5.50447 6.31923 5.56462 6.2892 5.4368 6.41679C5.30897 6.54438 5.18115 6.61192 5.15859 6.66446C5.13603 6.71699 5.13603 6.64945 5.0834 6.82207C5.03077 6.99468 5.03076 7.00218 4.91046 7.12977C4.79015 7.25735 4.68488 7.41496 4.79767 7.36242C4.91046 7.30989 4.97061 7.20482 5.10595 7.11476C5.2413 7.0247 5.32401 6.97216 5.39168 6.91963C5.45936 6.86709 5.37664 6.99467 5.53455 6.82957C5.69245 6.66446 5.5947 6.76952 5.69245 6.66446C5.7902 6.55939 5.69245 6.62693 5.87291 6.48434C6.05337 6.34174 5.9481 6.4318 6.09097 6.31923C6.23383 6.20665 6.19624 6.20665 6.25639 6.16913C6.31654 6.1316 6.32406 6.17663 6.35414 6.10909C6.38421 6.04154 6.28646 6.16162 6.38421 6.04154C6.48196 5.92146 6.34662 5.8389 6.42933 5.8389C6.51204 5.8389 6.51204 5.8389 6.51204 5.8389Z" fill="var(--fill-0, white)"/>
<path id="Vector_9" d="M21.6392 10.0942C21.6693 10.0567 21.767 9.95164 21.8121 9.90661C21.8573 9.86158 21.9099 9.89159 21.8798 9.80904C21.8497 9.72649 21.9249 9.56888 21.9625 9.5989C22.0001 9.62892 22.1731 9.65894 22.2407 9.69646C22.3084 9.73399 22.3686 9.80904 22.3009 9.87658C22.2332 9.94413 22.0076 10.1393 21.9324 10.1993C21.8573 10.2593 21.7219 10.2593 21.6918 10.2593C21.6618 10.2593 21.4813 10.2819 21.5114 10.2068C21.5415 10.1318 21.6392 10.0942 21.6392 10.0942Z" fill="var(--fill-0, white)"/>
<path id="Vector_10" d="M22.331 12.6384C22.3765 12.5259 22.4066 12.4733 22.399 12.3833C22.3915 12.2932 22.3938 12.1956 22.4002 12.1281C22.4066 12.0606 22.3539 12.038 22.2938 12.0605C22.2336 12.0831 22.181 12.1947 22.1434 12.3453C22.1058 12.4958 22.1058 12.7285 22.0832 12.781C22.0607 12.8336 22.008 12.9011 22.0005 12.9837C21.993 13.0662 21.9253 13.1188 21.9704 13.1713C22.0156 13.2238 22.1297 13.2463 22.1779 13.2238C22.2261 13.2013 22.3005 13.2614 22.331 13.1263C22.3614 12.9912 22.331 12.6384 22.331 12.6384Z" fill="var(--fill-0, white)"/>
<path id="Vector_11" d="M22.8276 11.9405C22.8051 11.9255 22.7599 11.8354 22.775 11.7754C22.79 11.7153 22.8427 11.6027 22.9103 11.5052C22.978 11.4076 23.0607 11.1975 23.166 11.22C23.2713 11.2425 23.2562 11.2275 23.2637 11.3551C23.2713 11.4827 23.2261 12.0362 23.2637 12.0521C23.3013 12.0681 23.3164 12.0831 23.384 12.1281C23.4517 12.1731 23.4216 12.3007 23.5269 12.3683C23.6322 12.4358 23.6547 12.5559 23.6547 12.5559C23.6547 12.6384 23.6397 12.7885 23.5946 12.8711C23.5495 12.9536 23.5344 13.0212 23.5044 12.9687C23.4743 12.9161 23.5194 12.8786 23.4517 12.8636C23.384 12.8486 23.3615 12.8336 23.3164 12.8636C23.2713 12.8936 23.181 12.9311 23.1134 12.9461C23.0457 12.9611 22.9705 13.0287 22.9103 13.0437C22.8502 13.0587 22.7975 13.0137 22.8577 12.9236C22.9179 12.8336 22.978 12.6609 22.9855 12.5709C22.993 12.4808 23.0156 12.3307 22.978 12.2932C22.9404 12.2557 22.8351 12.2557 22.8577 12.1731C22.8803 12.0906 22.8652 11.963 22.8652 11.963L22.8276 11.9405Z" fill="var(--fill-0, white)"/>
<path id="Vector_12" d="M24.099 12.5784C24.0915 12.1431 24.2644 11.9104 24.3246 11.8204C24.3847 11.7303 24.4148 11.6328 24.5802 11.5877C24.7457 11.5427 24.7908 11.5202 24.8885 11.4526C24.9863 11.3851 25.1367 11.22 25.1968 11.1675C25.257 11.1149 25.3171 10.9573 25.3322 10.9348C25.3472 10.9123 25.5352 10.8297 25.5427 10.6271C25.5502 10.4245 25.5502 10.2669 25.6254 10.1393C25.7006 10.0117 25.7457 9.77153 25.8585 9.62893C25.9713 9.48634 26.0314 9.23117 26.1518 9.10358C26.2721 8.976 26.3247 8.92346 26.3397 8.87843C26.3548 8.8334 26.2946 8.49568 26.3397 8.33057C26.3848 8.16546 26.43 8.16546 26.46 8.03037C26.4901 7.89528 26.3097 7.53504 26.2796 7.49751C26.2495 7.45999 26.3021 7.46749 26.1442 7.62509C25.9863 7.7827 25.9487 7.84274 25.8735 7.99284C25.7984 8.14294 25.7232 8.19548 25.7307 8.27803C25.7382 8.36058 25.5953 8.72082 25.5803 8.8334C25.5653 8.94597 25.5427 8.93847 25.46 9.05104C25.3773 9.16362 25.4374 9.16362 25.3547 9.27619C25.272 9.38877 25.2645 9.4338 25.2269 9.47883C25.1893 9.52386 25.2494 9.50886 25.1667 9.59516C25.084 9.68146 25.0164 9.75379 25.0164 9.75379L24.9412 9.84657C24.9412 9.84657 24.9111 9.98539 24.8961 10.0286C24.881 10.0717 24.9562 10.1318 24.8885 10.1993C24.8209 10.2669 24.8509 10.1918 24.7757 10.3569C24.7005 10.522 24.7908 10.7247 24.7306 10.8147C24.6705 10.9048 24.6254 11.0249 24.6254 10.8748C24.6254 10.7247 24.6028 10.7096 24.5652 10.6496C24.5276 10.5896 24.4449 10.5896 24.4223 10.5595C24.3998 10.5295 24.3923 10.5145 24.3321 10.5145C24.272 10.5145 24.1441 10.6121 24.1441 10.6121C24.1441 10.6121 23.9637 10.8597 23.9261 10.8597C23.8885 10.8597 23.911 10.7622 23.9261 10.5671C23.9411 10.3719 24.0689 10.1017 24.0765 10.0642C24.084 10.0267 24.0313 9.87659 24.1065 9.78653C24.1817 9.69647 24.2644 9.62893 24.302 9.47883C24.3396 9.32873 24.4223 9.26869 24.475 9.15611C24.5276 9.04354 24.6103 9.08107 24.5727 8.96849C24.5351 8.85591 24.5276 8.3906 24.5953 8.30054C24.663 8.21048 24.6479 8.12793 24.7457 8.04537C24.8434 7.96281 24.7532 7.95531 24.8961 7.9478C25.0389 7.9403 25.2097 7.85774 25.1845 7.73016C25.1592 7.60257 25.0389 7.55004 25.0991 7.44497C25.1592 7.3399 25.2495 7.24984 25.2871 7.12976C25.3246 7.00968 25.2645 6.70948 25.3698 6.58189C25.475 6.45431 25.4675 6.16912 25.5126 6.09407C25.5577 6.01902 25.4449 5.74883 25.5126 5.61374C25.5803 5.47865 25.46 5.11842 25.5953 5.17845C25.7307 5.23849 26.1292 5.68879 26.2871 5.81638C26.445 5.94396 26.7383 6.2967 26.8886 6.42428C27.039 6.55187 27.3624 6.747 27.2721 6.8971C27.1819 7.0472 27.0616 7.09223 26.9789 7.17478C26.8962 7.25734 26.8736 7.24983 26.8586 7.36991C26.8435 7.48999 26.9187 7.67011 26.8886 7.76018C26.8586 7.85024 26.8661 7.95531 26.836 7.97032C26.8059 7.98533 26.7683 8.17295 26.8059 8.17295C26.8435 8.17295 26.9337 8.248 27.0541 8.13543C27.1744 8.02286 27.1518 8.12042 27.227 7.96281C27.3022 7.80521 27.2872 7.85024 27.3398 7.67762C27.3924 7.50501 27.4977 7.24234 27.5428 7.23483C27.5879 7.22732 27.7834 7.36992 27.7909 7.4825C27.7985 7.59507 27.7533 7.56505 27.9338 7.71515C28.1143 7.86525 28.2647 8.21048 28.3398 8.33057C28.415 8.45064 28.776 8.99101 28.9564 9.22366C29.1369 9.45632 29.3775 9.79346 29.3549 9.92884C29.3324 10.0642 29.2977 10.3044 29.3564 10.3569C29.4151 10.4095 29.6407 10.7697 29.6933 10.9048C29.7459 11.0399 29.9565 11.4601 29.9866 11.5502C30.0166 11.6403 30.1219 12.1581 30.2121 12.3157C30.3024 12.4733 30.3475 12.6159 30.3475 12.6985C30.3475 12.781 30.2873 12.7285 30.3475 12.8411C30.4076 12.9536 30.37 13.2163 30.4302 13.3064C30.4903 13.3964 30.4527 13.4565 30.4678 13.5465C30.4828 13.6366 30.5204 13.7792 30.5806 13.8542C30.6407 13.9293 30.6633 13.9668 30.6558 14.0944C30.6482 14.222 30.6182 14.4697 30.6934 14.5597C30.7685 14.6498 30.7836 14.7549 30.7761 14.8674C30.7685 14.98 30.7385 15.2502 30.6934 15.1751C30.6482 15.1001 30.5956 14.965 30.4678 14.8674C30.34 14.7699 30.3324 14.7699 30.2347 14.7398C30.1369 14.7098 29.8136 14.7699 29.8136 14.7699C29.8136 14.7699 29.8437 15.111 29.8286 15.1881C29.8136 15.2652 29.7911 15.3189 29.8963 15.3934C30.0016 15.4678 30.0166 15.4828 30.0317 15.5954C30.0467 15.708 30.0467 15.708 30.0918 15.768C30.1369 15.8281 30.2873 15.9106 30.4753 15.9106C30.6633 15.9106 30.8623 16.0607 30.7778 16.4135C30.6934 16.7662 30.8889 17.5692 30.5505 19.2203C30.2121 20.8714 29.5279 22.6201 29.0316 23.4757C28.5353 24.3312 28.3699 24.6464 28.2271 24.6239C28.0842 24.6014 27.9489 24.5264 27.9564 24.2937C27.9639 24.0611 27.9639 23.8734 28.0165 23.7308C28.0692 23.5882 28.0541 23.4832 28.1143 23.303C28.1744 23.1229 28.0917 22.8753 28.1594 22.7552C28.2271 22.6351 28.3248 22.2824 28.3323 22.0572C28.3399 21.8321 28.3098 21.3517 28.3173 21.2166C28.3248 21.0816 28.2647 20.9915 28.3774 20.9014C28.4902 20.8114 28.7008 20.5787 28.7459 20.3836C28.791 20.1885 28.6632 20.1134 28.6105 20.0534C28.5579 19.9933 28.2947 20.0534 28.212 20.1284C28.1293 20.2035 27.8887 20.4361 27.7383 20.5262C27.5879 20.6162 27.4451 20.9089 26.851 20.7739C26.257 20.6388 26.1593 20.7138 25.9111 20.5937C25.663 20.4737 25.5502 20.4286 25.445 20.3311C25.3397 20.2335 25.4374 20.256 25.1893 20.166C24.9412 20.0759 24.8885 20.1284 24.5878 19.9183C24.287 19.7082 23.7531 19.4305 23.6779 19.3704C23.6028 19.3104 23.3621 19.0477 23.3321 19.0102C23.302 18.9727 23.3095 18.9501 23.2042 18.8451C23.099 18.74 23.0915 18.7775 23.0463 18.6575C23.0012 18.5374 23.1892 18.4323 23.0087 18.1396C22.8283 17.8469 22.7907 17.7043 22.8433 17.6368C22.896 17.5692 22.9486 17.5317 22.8734 17.4116C22.7982 17.2915 22.723 17.4041 22.8057 17.209C22.8884 17.0139 22.8659 16.8562 22.9185 16.7662C22.9711 16.6761 22.8884 16.7587 22.9937 16.5861C23.099 16.4135 23.0764 16.451 23.114 16.3459C23.1516 16.2408 23.1035 16.2558 23.214 16.0907C23.3245 15.9256 23.3772 15.8956 23.4373 15.813C23.4975 15.7305 24.0464 15.4003 24.3472 15.3477C24.6479 15.2952 24.866 15.1901 24.9111 15.1601C24.9562 15.1301 25.0916 15.1001 25.1818 15.1226C25.272 15.1451 25.5202 15.0926 25.8209 15.1151C26.1217 15.1376 26.3097 15.1901 26.4826 15.0776C26.6556 14.965 26.8435 15.04 27.0691 14.7623C27.2947 14.4847 27.1669 14.267 27.3097 14.267C27.4526 14.267 27.5729 14.3346 27.7909 14.4096C28.009 14.4847 27.9263 14.5897 28.3098 14.5747C28.6932 14.5597 28.9113 14.6047 28.8888 14.4546C28.8662 14.3045 28.9339 14.282 28.8662 14.252C28.7985 14.222 28.7083 14.2595 28.7083 14.1319C28.7083 14.0043 28.7008 13.7116 28.7384 13.6591C28.776 13.6066 28.8436 13.6516 28.8361 13.494C28.8286 13.3364 28.791 13.2562 28.8587 13.2325C28.9263 13.2088 28.9264 13.2088 28.9264 13.2088C28.9264 13.2088 28.8662 13.1788 28.8361 13.0812C28.806 12.9837 28.8436 12.7735 28.7233 12.8035C28.603 12.8336 28.5504 12.8336 28.4902 12.8936C28.4301 12.9536 28.4677 12.9161 28.3549 12.9987C28.2421 13.0812 28.197 13.0962 28.0842 13.1938C27.9714 13.2914 28.0767 13.4415 27.8511 13.4865C27.6255 13.5315 27.4902 13.6291 27.5428 13.4865C27.5954 13.3439 27.5579 13.2313 27.6255 13.1713C27.6932 13.1112 27.7534 13.0212 27.8586 12.9161C27.9639 12.811 27.994 12.796 27.994 12.6985C27.994 12.6009 27.9338 12.5709 27.9113 12.5784C27.8887 12.5859 27.7834 12.5259 27.8135 12.5259C27.8436 12.5259 28.0391 12.5259 28.0692 12.4058C28.0992 12.2857 28.009 12.3607 28.0992 12.2857C28.1895 12.2106 28.2722 12.0681 28.3474 11.993C28.4226 11.9179 28.3474 11.933 28.4451 11.8579C28.5429 11.7829 28.4526 11.7378 28.603 11.6778C28.7534 11.6178 28.8812 11.6478 28.8737 11.4977C28.8662 11.3476 28.9263 11.0699 28.9113 11.0023C28.8963 10.9348 28.791 11.0099 28.7684 10.9198C28.7459 10.8297 28.6105 10.7772 28.5805 10.7997C28.5504 10.8222 28.588 10.8748 28.4677 10.8673C28.3474 10.8598 28.3173 10.8447 28.1669 10.8597C28.0165 10.8748 27.7534 10.8597 27.7308 10.9048C27.7082 10.9498 27.6406 10.9273 27.6481 11.0399C27.6556 11.1524 27.5278 11.1675 27.6255 11.3401C27.7233 11.5127 27.7458 11.5202 27.7534 11.7528C27.7609 11.9855 27.791 12.1356 27.7684 12.2632C27.7458 12.3908 27.8962 12.4583 27.6631 12.5334C27.43 12.6084 27.4225 12.6087 27.3398 12.6423C27.2571 12.676 27.2721 12.736 27.227 12.7735C27.1819 12.8111 27.2195 12.8486 27.0992 12.9311C26.9789 13.0137 26.9638 12.9443 26.9187 13.0466C26.8736 13.1488 26.7157 13.2163 26.6405 13.1563C26.5653 13.0962 26.5353 13.0662 26.4826 13.0062C26.43 12.9461 26.4751 13.0062 26.4074 12.8561C26.3398 12.706 26.3774 12.691 26.3097 12.6835C26.242 12.676 26.1894 12.6084 26.1668 12.721C26.1443 12.8336 26.0465 13.0662 26.1518 13.1638C26.257 13.2614 26.3247 13.1713 26.3022 13.3214C26.2796 13.4715 26.3473 13.5766 26.2119 13.5691C26.0766 13.5616 26.0916 13.6141 25.9713 13.5616C25.851 13.509 25.9788 13.6516 25.851 13.509C25.7232 13.3664 25.7833 13.2989 25.663 13.3214C25.5427 13.3439 25.4901 13.4115 25.4299 13.449C25.3698 13.4865 25.3472 13.4865 25.3472 13.6141C25.3472 13.7417 25.2495 13.9293 25.1968 13.9068C25.1442 13.8843 25.0389 13.7191 25.0013 13.7792C24.9637 13.8392 24.7081 14.0644 24.6855 14.192C24.663 14.3195 24.5352 14.4922 24.4976 14.5522C24.46 14.6122 24.5577 14.6047 24.4299 14.6948C24.3021 14.7849 24.3321 14.8243 24.1667 14.8984C24.0013 14.9725 23.9336 14.8994 23.8885 14.8984C23.8434 14.8974 23.7757 14.7774 23.7231 14.7173C23.6705 14.6573 23.6328 14.5897 23.6554 14.5297C23.678 14.4696 23.708 14.4471 23.7231 14.3496C23.7381 14.252 23.7682 14.1244 23.7832 14.0269C23.7983 13.9293 23.7983 13.9068 23.8584 13.8092C23.9186 13.7116 24.1366 13.449 24.1442 13.3664C24.1517 13.2839 24.1818 13.2388 24.1366 13.2013C24.0915 13.1638 24.099 12.5784 24.099 12.5784Z" fill="var(--fill-0, white)"/>
<path id="Vector_13" d="M18.5338 22.0722C18.7217 22.0722 18.8721 21.9522 18.8646 21.8246C18.8571 21.697 18.7969 21.6745 18.8721 21.5469C18.9473 21.4193 19.03 21.3668 19.0676 21.3217C19.1052 21.2767 19.1428 21.2767 19.2105 21.1491C19.2782 21.0215 19.1804 21.0816 19.2932 20.9615C19.406 20.8414 19.4661 20.6913 19.5489 20.6538C19.6316 20.6163 19.8195 20.4361 19.8421 20.3686C19.8647 20.3011 19.9323 20.0909 19.8421 20.0009C19.7519 19.9108 19.5564 19.8282 19.4887 19.8132C19.421 19.7982 19.3534 19.7907 19.1503 19.6481C18.9473 19.5055 18.9398 19.5055 18.7969 19.3854C18.6541 19.2654 18.7894 19.2353 18.5864 19.1903C18.3834 19.1453 18.3458 19.1453 18.3007 19.1003C18.2556 19.0552 18.1879 18.8901 18.1353 18.8076C18.0826 18.725 18.0074 18.65 17.8946 18.6349C17.7818 18.6199 17.5939 18.5449 17.5262 18.4698C17.4585 18.3948 17.3984 18.3197 17.3758 18.1922C17.3533 18.0646 17.3457 18.0646 17.2405 17.982C17.1352 17.8995 17.0525 17.8694 16.9623 17.7944C16.872 17.7193 16.7893 17.7193 16.684 17.6818C16.5788 17.6443 16.5036 17.6143 16.4058 17.5692C16.3081 17.5242 15.8193 17.1865 15.7366 17.0964C15.6539 17.0064 15.5938 16.8037 15.4133 16.8563C15.2328 16.9088 15.1952 17.0589 15.0298 17.0364C14.8644 17.0139 14.526 16.9463 14.5561 17.0064C14.5862 17.0664 14.7742 17.164 14.7591 17.3066C14.7441 17.4492 14.5185 17.6893 14.4584 17.7569C14.3982 17.8244 14.338 17.982 14.2328 18.0871C14.1275 18.1922 14.2253 18.1546 14.0373 18.2822C13.8493 18.4098 13.9471 18.2972 13.7967 18.5149C13.6463 18.7325 13.5636 18.7625 13.526 18.8001C13.4884 18.8376 13.4884 18.9051 13.4433 19.0252C13.3982 19.1453 13.4057 19.1903 13.3606 19.2954C13.3154 19.4005 13.3079 19.5656 13.3004 19.6857C13.2929 19.8057 13.4282 20.166 13.5185 20.2785C13.6087 20.3911 13.6237 20.5337 13.7215 20.6013C13.8192 20.6688 13.8568 20.6913 13.8794 20.6988C13.9019 20.7063 14.1426 20.7363 14.1877 20.8789C14.2328 21.0215 14.3305 21.1791 14.3381 21.2767C14.3456 21.3743 14.3757 21.3518 14.4433 21.4193C14.511 21.4868 14.5411 21.5169 14.6163 21.5544C14.6915 21.5919 14.7065 21.5469 14.7892 21.6445C14.8719 21.742 14.9246 21.8096 14.9396 21.9371C14.9546 22.0647 14.8945 22.0948 14.8494 22.1698C14.8043 22.2449 14.7516 23.0329 14.7742 23.2355C14.7967 23.4382 14.6915 23.5507 14.6087 23.6933C14.526 23.8359 14.4208 23.8359 14.3757 23.911C14.3305 23.986 14.3456 24.0085 14.3305 24.0911C14.3155 24.1736 14.4358 24.6164 14.3606 24.7665C14.2854 24.9166 14.3005 24.8491 14.2478 25.0217C14.1952 25.1943 14.2178 25.2394 14.1952 25.3594C14.1726 25.4795 14.1275 25.5696 14.1275 25.6521C14.1275 25.7347 14.1877 25.7722 14.1952 26.1174C14.2027 26.4627 14.12 26.6203 14.0899 26.7178C14.0599 26.8154 14.0373 26.958 14.0222 27.033C14.0072 27.1081 13.9019 27.2882 14.0749 27.2357C14.2478 27.1831 14.3155 27.0405 14.4734 26.973C14.6313 26.9055 14.7215 26.9955 14.8494 26.8679C14.9772 26.7404 14.917 26.7704 15.0674 26.6878C15.2178 26.6053 15.1426 26.6803 15.2328 26.4927C15.3231 26.3051 15.3607 26.3126 15.3456 26.185C15.3306 26.0574 15.2779 26.0949 15.3155 25.9673C15.3531 25.8398 15.3005 25.7347 15.3757 25.5696C15.4509 25.4045 15.4885 25.3369 15.5186 25.2769C15.5486 25.2168 15.511 25.1718 15.7291 24.9992C15.9472 24.8266 15.9998 24.8491 16.0374 24.6915C16.075 24.5339 15.9472 23.9485 16.075 23.8284C16.2028 23.7083 16.1953 23.6333 16.3306 23.5057C16.466 23.3781 16.4737 23.3106 16.5939 23.3106C16.7141 23.3106 16.8269 23.243 16.9773 23.213C17.1277 23.183 17.1953 23.1154 17.2856 23.0329C17.3758 22.9503 17.3758 22.8978 17.436 22.8152C17.4961 22.7327 17.4284 22.8227 17.5262 22.6801C17.6239 22.5375 17.5638 22.5601 17.639 22.485C17.7142 22.41 17.6766 22.41 17.827 22.3049C17.9773 22.1998 18.1127 22.0722 18.2555 22.0872C18.3984 22.1023 18.5338 22.0722 18.5338 22.0722Z" fill="var(--fill-0, white)"/>
</g>
</svg>
