<svg preserveAspectRatio="none" width="100%" height="100%" overflow="visible" style="display: block;" viewBox="0 0 52.1642 40" fill="none" xmlns="http://www.w3.org/2000/svg">
<g id="clippath">
<path id="Vector" d="M3.98374 26.152C2.22609 25.8 0 25.092 0 23.452C0 21.812 0.340689 21.108 1.98993 19.116C3.63918 17.124 7.79326 13.276 18.5405 7.124C29.2915 0.972 36.7441 0 40.2555 0C43.7669 0 46.806 1.152 49.036 3.584C51.266 6.016 52.1642 8.232 52.1642 14.248C52.1642 20.264 50.7937 24.512 49.2102 29.248C47.6268 33.984 44.9284 40 37.3906 40C31.2234 40 26.6396 36.724 24.4135 35.088C22.1874 33.452 19.9884 31.332 15.451 29.34C10.9137 27.348 3.98761 26.152 3.98761 26.152H3.98374Z" fill="var(--fill-0, black)"/>
</g>
</svg>
