<svg preserveAspectRatio="none" width="100%" height="100%" overflow="visible" style="display: block;" viewBox="0 0 47.583 11.3078" fill="none" xmlns="http://www.w3.org/2000/svg">
<g id="Group">
<path id="Vector" d="M3.94682 0H6.61485L9.67742 9.30495H10.5145V11.1188H7.95689L7.23078 8.7057H3.31533L2.58895 11.1188H0V9.30495H0.85261L3.94682 0ZM5.28861 2.08158L3.80477 7.00248H6.74109L5.28861 2.08158Z" fill="var(--fill-0, white)"/>
<path id="Vector_2" d="M10.4512 2.68109H13.8298V4.32139H12.9772L14.1453 9.28915L15.5348 2.68109H17.7134L19.1184 9.21017L20.2394 4.32139H19.4184V2.68109H22.8128V4.32139H22.0864L20.2707 11.1188H18.0291L16.6241 5.2516L15.2979 11.1188H13.0246L11.1615 4.32139H10.4512V2.68109Z" fill="var(--fill-0, white)"/>
<path id="Vector_3" d="M30.801 9.4782H31.5274V11.1188H28.9066V10.1254C28.0384 10.9926 27.3911 11.292 26.3492 11.292C24.6598 11.292 23.3652 10.1564 23.3652 8.65857C23.3652 6.18207 26.1597 5.91404 28.8594 5.66181C28.8436 4.36853 28.5278 4.0373 27.2962 4.0373C26.4281 4.0373 25.8282 4.52649 25.7807 5.31479L23.7284 5.25161C23.8388 3.56417 25.1967 2.47598 27.2016 2.47598C29.5381 2.47598 30.801 3.53283 30.801 5.4567V9.4782ZM28.8277 7.1286C26.8384 7.31765 25.5441 7.49141 25.5441 8.65857C25.5441 9.35208 26.0965 9.80942 26.9333 9.80942C28.0068 9.80942 28.8277 9.00507 28.8277 7.94874V7.1286Z" fill="var(--fill-0, white)"/>
<path id="Vector_4" d="M35.8846 3.99017C36.4373 2.91779 37.053 2.47598 37.9999 2.47598C38.2843 2.47598 38.5368 2.50759 38.9474 2.58656V4.55809C38.5684 4.47936 38.2685 4.44751 37.9211 4.44751C36.816 4.44751 35.8846 5.23581 35.8846 6.19813V9.4782H36.8951V11.1188H32.9957V9.4782H33.8164V4.32139H33.0112V2.68109H35.8846L35.8846 3.99017Z" fill="var(--fill-0, white)"/>
<path id="Vector_5" d="M47.441 8.34289C47.062 10.1722 45.5307 11.3078 43.4783 11.3078C41.1102 11.3078 39.3736 9.46293 39.3736 6.8761C39.3736 4.32139 41.126 2.42885 43.4941 2.42885C44.8359 2.42885 46.0198 3.05996 46.7462 4.14814C47.5198 5.33085 47.5514 6.4501 47.583 7.30211H41.489C41.6943 9.49426 43.131 9.60432 43.5255 9.60432C44.3623 9.60432 44.915 9.21017 45.2463 8.34289H47.441ZM45.2779 5.85085C45.1361 4.77846 44.4886 4.19527 43.4941 4.19527C42.5783 4.19527 41.868 4.81032 41.5996 5.85085H45.2779Z" fill="var(--fill-0, white)"/>
</g>
</svg>
