<svg preserveAspectRatio="none" width="100%" height="100%" overflow="visible" style="display: block;" viewBox="0 0 94 23.04" fill="none" xmlns="http://www.w3.org/2000/svg">
<g id="YGG" clip-path="url(#clip0_0_13371)">
<path id="YGGDRASIL" d="M88.4335 6.63143H90.2169V13.2487H94.0007V14.9032H88.4335V6.63143ZM85.1633 14.9032H86.9467V6.63143H85.1633V14.9032ZM77.3988 13.6434C78.372 14.5296 79.6107 14.9671 80.8383 14.9671C82.5871 14.9671 83.8148 14.045 83.8148 12.4025V12.3793C83.8148 10.9376 82.8885 10.3351 81.2434 9.89757C79.8423 9.531 79.4946 9.35403 79.4946 8.8105V8.78662C79.4946 8.38493 79.854 8.06611 80.537 8.06611C81.2199 8.06611 81.927 8.373 82.6452 8.88142L83.5721 7.51064C82.7496 6.83718 81.7418 6.45937 80.5605 6.45937C78.9043 6.45937 77.723 7.45165 77.723 8.95235V8.97552C77.723 10.6181 78.7771 11.0788 80.4098 11.5043C81.7653 11.8589 82.0431 12.0949 82.0431 12.5556V12.5795C82.0431 13.064 81.6028 13.3596 80.8736 13.3596C79.9466 13.3596 79.1821 12.9692 78.4529 12.3554L77.3988 13.6434ZM77.0338 14.9327L73.559 6.60193H71.9146L68.4398 14.9327H70.2584L72.7136 8.78802L73.7802 11.4566H72.3487L71.7155 13.057H74.4203L75.1696 14.9327H77.0345H77.0338ZM55.6908 6.63143C58.2393 6.63143 59.9992 8.41583 59.9992 10.7438V10.7677C59.9992 13.0956 58.2387 14.9032 55.6908 14.9032H52.9045V6.63143H55.6908ZM58.135 10.7677C58.135 9.30207 57.15 8.27398 55.6908 8.27398H54.6878V13.2606H55.6908C57.15 13.2606 58.135 12.2564 58.135 10.7908V10.7677ZM48.9223 10.597V12.0205H49.7628V12.8948C49.3115 13.2255 48.7322 13.3912 48.0831 13.3912C46.6475 13.3912 45.6279 12.2803 45.6279 10.7684V10.7445C45.6279 9.33858 46.6585 8.16864 47.956 8.16864C48.894 8.16864 49.4497 8.47552 50.0753 9.00783L51.1985 7.6251C50.3531 6.89266 49.4725 6.49098 48.0133 6.49098C45.5581 6.49098 43.763 8.41724 43.763 10.7691V10.7922C43.763 13.2382 45.5007 15.0464 48.0251 15.0464C49.5078 15.0464 50.6545 14.4559 51.4881 13.7346V10.5977H48.9216L48.9223 10.597ZM40.0158 10.597V12.0205H40.8564V12.8948C40.405 13.2255 39.8258 13.3912 39.1767 13.3912C37.7403 13.3912 36.7214 12.2803 36.7214 10.7684V10.7445C36.7214 9.33858 37.7521 8.16864 39.0495 8.16864C39.9875 8.16864 40.5432 8.47552 41.1688 9.00783L42.2921 7.6251C41.4467 6.89266 40.5661 6.49098 39.1069 6.49098C36.6516 6.49098 34.8565 8.41724 34.8565 10.7691V10.7922C34.8565 13.2382 36.5943 15.0464 39.1186 15.0464C40.6013 15.0464 41.7474 14.4559 42.5817 13.7346V10.5977H40.0151L40.0158 10.597ZM30.1513 14.9032H31.9354V12.2346L35.0508 6.63143H33.0241L31.0548 10.3119L29.12 6.63143H27.0353L30.1513 12.2705V14.9032ZM65.9051 11.9488C66.9357 11.5591 67.6428 10.7199 67.6428 9.38423V9.36035C67.6428 8.58016 67.3995 7.93058 66.9481 7.46991C66.4152 6.92637 65.6161 6.63072 64.5855 6.63072H61.1473V14.9025H62.9307V8.27328H64.4348C65.3037 8.27328 65.8366 8.67496 65.8366 9.45516V9.47903C65.8366 10.1764 65.3383 10.649 64.4694 10.649H63.5908V12.2557H64.0643L65.8021 14.9025H67.8868L65.9064 11.9481L65.9051 11.9488Z" fill="var(--fill-0, white)"/>
<path id="YGG_SYMBOL" d="M22.7317 12.1917C22.6764 13.1032 22.5147 14.0126 22.243 14.9017C17.947 14.6404 14.1038 12.6692 11.3652 9.64886C8.62721 12.6685 4.78537 14.6397 0.49008 14.9017C0.221884 14.0218 0.0566806 13.1116 0 12.1917C1.44052 12.139 2.82297 11.856 4.1128 11.3778C2.9702 10.4143 1.64443 9.66642 0.197691 9.19521C0.37188 8.31179 0.649754 7.4403 1.03477 6.59971C3.19001 7.30477 5.12407 8.50912 6.7056 10.0786C7.6664 9.45785 8.54357 8.71698 9.31774 7.8764C6.6662 7.4087 4.31671 6.04775 2.57897 4.11025C3.16098 3.39185 3.81419 2.76053 4.52063 2.2205C5.54226 3.3764 6.84384 4.27247 8.31685 4.79845C7.79082 3.5028 7.42309 2.12359 7.23991 0.686095C8.08667 0.35323 8.96937 0.123595 9.86658 0.00210674C10.0511 1.7823 10.5723 3.46137 11.3652 4.9705C12.158 3.46067 12.6799 1.7809 12.8637 0C13.7527 0.119382 14.6347 0.346207 15.4911 0.685392C15.3072 2.12359 14.9402 3.50351 14.4135 4.79915C15.8858 4.27387 17.186 3.37851 18.2076 2.22331C18.9417 2.783 19.5915 3.41713 20.1527 4.10884C18.415 6.04704 16.0648 7.4087 13.4126 7.8764C14.1867 8.71698 15.0646 9.45785 16.0247 10.0786C17.6062 8.50912 19.5403 7.30477 21.6955 6.59971C22.0743 7.43117 22.3536 8.30336 22.5299 9.19592C21.0838 9.66712 19.7594 10.415 18.6175 11.3778C19.908 11.856 21.2912 12.139 22.7317 12.1917ZM12.7089 22.9578V19.0751L16.5694 13.9621C15.7399 13.592 14.9367 13.1496 14.1764 12.6454L11.3652 16.3694L8.55394 12.6454C7.79359 13.1503 6.99038 13.592 6.16091 13.9621L10.0214 19.0751V22.9599C10.9179 23.0674 11.82 23.0653 12.7089 22.9578Z" fill="var(--fill-0, #FA6432)"/>
</g>
<defs>
<clipPath id="clip0_0_13371">
<rect width="94" height="23.04" fill="white"/>
</clipPath>
</defs>
</svg>
